<svg width="20" height="16" viewBox="0 0 20 16" fill="none" xmlns="http://www.w3.org/2000/svg">
<path d="M20 3V12C20 12.71 19.62 13.36 19 13.72V15.25C19 15.66 18.66 16 18.25 16H17.75C17.34 16 17 15.66 17 15.25V14H10V15.25C10 15.66 9.66 16 9.25 16H8.75C8.34 16 8 15.66 8 15.25V13.72C7.39 13.36 7 12.71 7 12V3C7 0 10 0 13.5 0C17 0 20 0 20 3ZM11 11C11 10.45 10.55 10 10 10C9.45 10 9 10.45 9 11C9 11.55 9.45 12 10 12C10.55 12 11 11.55 11 11ZM18 11C18 10.45 17.55 10 17 10C16.45 10 16 10.45 16 11C16 11.55 16.45 12 17 12C17.55 12 18 11.55 18 11ZM18 3H9V7H18V3ZM5 5.5C4.97 4.12 3.83 3 2.45 3.05C1.787 3.06339 1.15646 3.33954 0.697028 3.81773C0.237592 4.29592 -0.0131269 4.937 5.2416e-07 5.6C0.0130606 6.1672 0.217894 6.71324 0.5811 7.14908C0.944306 7.58493 1.44446 7.88487 2 8V16H3V8C4.18 7.76 5 6.71 5 5.5Z" fill="black"/>
</svg>
