<svg width="41" height="32" viewBox="0 0 41 32" fill="none" xmlns="http://www.w3.org/2000/svg">
<g clip-path="url(#clip0_261_2106)">
<g style="mix-blend-mode:multiply">
<path d="M3.2966 16.6036C3.2966 16.6036 3.60822 14.8107 5.02547 14.6485L13.3123 17.5918L38.3031 4.1397L39.1163 3.67012C39.1163 3.67012 39.9295 3.3649 39.9295 4.85259L39.8153 13.2622L40.3553 13.4521C40.3553 13.4521 41.5517 14.0092 38.8612 15.3304L12.7147 30.6811C9.76493 32.4772 5.82054 31.0109 2.98497 29.6352C0.751309 28.9053 1.50262 28.2415 1.50262 28.2415L3.04473 27.773L3.2966 16.6036Z" fill="#A4A3A3"/>
</g>
<path d="M39.9466 12.2548V3.72356C39.9466 2.23587 39.1334 2.5411 39.1334 2.5411L38.3202 3.01173L13.3294 16.4639C13.3294 16.4639 11.8545 16.9078 11.7233 19.2941L10.8108 29.6535C10.8108 29.6535 10.6283 30.8338 12.7318 29.5521L38.8783 14.2025C40.2198 13.5205 39.9466 12.2548 39.9466 12.2548Z" fill="#F39500"/>
<g style="mix-blend-mode:multiply">
<path d="M11.1288 27.217L39.9466 10.6721" stroke="#B2B2B2" stroke-width="0.0789732" stroke-linejoin="round"/>
<path d="M15.6613 22.6152V27.8296" stroke="#B2B2B2" stroke-width="0.0789732" stroke-linejoin="round"/>
<path d="M18.9931 20.6729V25.8862" stroke="#B2B2B2" stroke-width="0.0789732" stroke-linejoin="round"/>
<path d="M22.6621 18.5406V23.755" stroke="#B2B2B2" stroke-width="0.0789732" stroke-linejoin="round"/>
<path d="M26.741 16.118V21.3313" stroke="#B2B2B2" stroke-width="0.0789732" stroke-linejoin="round"/>
<path d="M30.5573 13.8939V19.1083" stroke="#B2B2B2" stroke-width="0.0789732" stroke-linejoin="round"/>
</g>
<path d="M17.2332 28.8669L15.7712 28.4752C15.6168 28.3959 15.4966 28.2632 15.4329 28.1017C15.2365 27.2597 15.0882 26.8275 15.4425 25.9364C15.9761 24.6013 17.1137 23.8019 17.9899 24.1509C18.8661 24.4999 19.1457 25.8585 18.6153 27.1978C18.2855 28.027 17.8245 28.598 17.2279 28.8669" fill="#181817"/>
<path d="M35.2882 18.2194L33.8251 17.8288C33.6708 17.7489 33.5506 17.6158 33.4868 17.4542C33.2904 16.6122 33.1421 16.1799 33.4964 15.2888C34.03 13.9548 35.1676 13.1544 36.0438 13.5034C36.92 13.8524 37.2007 15.2163 36.6756 16.5503C36.3458 17.3795 35.8848 17.9504 35.2946 18.2194" fill="#181817"/>
<path d="M30.5573 21.0625L29.0984 20.6708C28.9441 20.5915 28.8238 20.4587 28.7601 20.2973C28.5627 19.4553 28.4154 19.023 28.7697 18.1319C29.3033 16.7968 30.441 15.9975 31.3171 16.3465C32.1933 16.6955 32.4729 18.054 31.9425 19.3934C31.6128 20.2226 31.1517 20.7935 30.5605 21.0625" fill="#181817"/>
<path d="M38.5133 12.7617C38.5048 11.1118 36.6414 11.6784 36.6414 11.6784L30.5584 15.0241C28.1347 16.3048 28.2511 19.4103 28.2511 19.4103L20.7166 23.7539C20.183 21.2993 17.5235 22.6152 17.5235 22.6152C15.1981 23.756 14.7413 26.0761 14.7413 26.0761L10.9559 28.0654L10.8161 29.6534C10.8161 29.6534 10.6336 30.8337 12.7371 29.552L38.8836 14.2024C40.2283 13.5204 39.9508 12.2547 39.9508 12.2547V12.0146L38.5133 12.7617Z" fill="white"/>
<path d="M3.72029 28.519C3.72029 28.519 8.50244 31.1753 11.2302 30.1775L13.3294 16.4639L5.04363 13.5205C3.62531 13.6827 3.31369 15.4756 3.31369 15.4756C3.31369 15.4756 1.68513 21.6548 2.4183 26.375C2.4183 26.375 2.2294 27.8958 3.72029 28.519Z" fill="#F39500"/>
<path d="M3.11412 25.9534C2.81205 25.8298 2.53693 25.6485 2.30411 25.4198C2.33328 25.7421 2.3717 26.0591 2.41937 26.3707C2.41937 26.3707 2.2294 27.8914 3.72029 28.5147C3.72029 28.5147 8.50244 31.171 11.2302 30.1731L11.576 27.916C8.41706 28.8978 3.11412 25.9534 3.11412 25.9534Z" fill="white"/>
<path d="M4.22613 15.5087L1.90496 16.1575C1.90496 16.1575 0.423677 16.4777 0.436484 18.4691H1.21021C1.21021 18.4691 1.25183 17.2066 2.34572 16.9889L3.91237 16.7477L4.22613 15.5087Z" fill="#20201F"/>
<path d="M1.35855 21.0027L0 20.6323V18.0625L1.35855 18.4328V21.0027Z" fill="#2D2D2D"/>
<path d="M1.35855 18.4328L1.50262 18.3506V20.7892L1.35855 21.0026V18.4328Z" fill="#0E0E0C"/>
<path d="M0 18.0625L0.19103 18.0103L1.50263 18.3507L1.35855 18.4329L0 18.0625Z" fill="#414142"/>
<g style="mix-blend-mode:multiply">
<path d="M11.1256 25.2992V27.2202C7.43416 27.8989 2.26462 24.963 2.26462 24.963" stroke="#B2B2B2" stroke-width="0.22518" stroke-linejoin="round"/>
</g>
<path d="M32.5519 0.325562L38.8452 2.72677L12.5418 16.8811L4.43851 13.7542L32.5519 0.325562Z" fill="#403F40"/>
<g style="mix-blend-mode:multiply">
<path d="M11.1256 25.2993L39.9466 8.68713" stroke="#B2B2B2" stroke-width="0.22518" stroke-linejoin="round"/>
</g>
<g style="mix-blend-mode:multiply">
<path d="M3.07996 23.9033C3.07996 23.9033 2.86652 24.6301 3.4951 25.0111C3.4951 25.0111 5.91339 26.2298 8.35196 26.597C8.35196 26.597 9.00188 26.4593 8.77244 25.7709L3.07996 23.9033Z" stroke="#B2B2B2" stroke-width="0.22518" stroke-linejoin="round"/>
</g>
<path d="M5.04361 13.5205C3.573 13.5483 3.15359 15.4756 3.15359 15.4756C3.15359 15.4756 2.128 19.4712 2.22725 23.5864C2.22725 23.5864 6.90802 26.0815 10.099 26.0036C11.1256 26.0271 11.2302 25.4284 11.2302 25.4284C11.2761 21.2321 11.8438 18.4233 11.8438 18.4233C12.164 16.5652 13.3294 16.4617 13.3294 16.4617C13.3294 16.4617 5.64765 14.4863 5.04361 13.5205Z" fill="#2D2D2D"/>
<path d="M10.6913 24.7207C10.6913 24.7207 10.6561 25.392 9.63049 25.2383C9.45867 25.2127 5.22613 24.5286 2.21981 22.6141C2.11309 19.1467 3.15361 15.4851 3.15361 15.4851C3.15361 15.4851 3.36706 14.8395 3.90066 15.0967C6.96888 16.5651 10.4031 17.0657 10.4031 17.0657C10.4031 17.0657 11.3498 17.1521 11.1811 18.5021C11.1854 18.5021 10.8065 20.6312 10.6913 24.7207Z" fill="#8CD0E5"/>
<g style="mix-blend-mode:multiply">
<path d="M9.68595 23.0912C9.26843 23.2632 8.82058 23.3496 8.36901 23.3452C7.26177 23.3721 6.16006 23.1807 5.12684 22.7817C4.31363 22.4541 3.54417 21.9877 3.02124 21.2684C2.75526 20.8756 2.52965 20.4569 2.34784 20.0187C2.34037 20.0027 2.33396 19.9856 2.32649 19.9696C2.23315 20.8475 2.1975 21.7305 2.21977 22.6131C5.22609 24.5276 9.45863 25.2117 9.63045 25.2373C10.656 25.391 10.6913 24.7197 10.6913 24.7197C10.7179 23.8073 10.7564 22.9941 10.798 22.279C10.4875 22.6238 10.1088 22.9003 9.68595 23.0912Z" fill="#8CD0E5"/>
</g>
<path d="M5.2133 25.2021C5.20664 25.2204 5.19643 25.2372 5.18326 25.2515C5.17008 25.2658 5.15421 25.2773 5.13655 25.2854C5.11889 25.2936 5.09979 25.2981 5.08036 25.2989C5.06093 25.2996 5.04155 25.2964 5.02334 25.2896L4.32218 25.0346C4.30338 25.0283 4.28605 25.0182 4.27126 25.005C4.25647 24.9918 4.24451 24.9757 4.23613 24.9578C4.22774 24.9398 4.2231 24.9203 4.22248 24.9005C4.22187 24.8807 4.22529 24.8609 4.23254 24.8425C4.246 24.8058 4.27345 24.776 4.30887 24.7596C4.34429 24.7432 4.38478 24.7415 4.42143 24.755L5.12365 25.0132C5.16012 25.0269 5.18974 25.0544 5.20611 25.0897C5.22248 25.1251 5.2243 25.1654 5.21116 25.2021H5.2133Z" fill="#2D2D2D"/>
<path d="M7.0553 25.8402C7.0496 25.8587 7.04027 25.8759 7.02787 25.8908C7.01547 25.9057 7.00024 25.9179 6.98307 25.9269C6.96589 25.9358 6.94711 25.9412 6.92782 25.9428C6.90853 25.9445 6.8891 25.9422 6.87068 25.9363L6.15352 25.71C6.11643 25.6978 6.08566 25.6715 6.06788 25.6367C6.0501 25.6019 6.04674 25.5616 6.05853 25.5244C6.07031 25.4871 6.09636 25.4561 6.13098 25.4381C6.16559 25.4201 6.20594 25.4166 6.24316 25.4283L6.95605 25.6556C6.97446 25.6614 6.99153 25.6708 7.00628 25.6833C7.02104 25.6957 7.03318 25.711 7.04201 25.7281C7.05084 25.7453 7.05618 25.764 7.05773 25.7833C7.05928 25.8025 7.05701 25.8219 7.05104 25.8402H7.0553Z" fill="#2D2D2D"/>
<path d="M2.41828 26.6823L3.88035 27.2906C3.88035 27.2906 4.23253 26.2768 2.31156 25.5233C2.31156 25.5233 2.17389 25.5628 2.41828 26.6535" fill="#2D2D2D"/>
<path d="M3.2838 26.3632C3.2838 26.432 3.26337 26.4993 3.22509 26.5566C3.18682 26.6138 3.13242 26.6584 3.06878 26.6847C3.00515 26.711 2.93514 26.7178 2.86762 26.7043C2.80011 26.6908 2.73812 26.6576 2.68951 26.6088C2.64089 26.56 2.60784 26.4979 2.59454 26.4304C2.58123 26.3628 2.58828 26.2928 2.61477 26.2293C2.64127 26.1657 2.68603 26.1115 2.74338 26.0734C2.80073 26.0353 2.8681 26.015 2.93696 26.0153C3.02904 26.0155 3.11726 26.0523 3.18228 26.1175C3.24729 26.1828 3.2838 26.2711 3.2838 26.3632Z" fill="#DADADA"/>
<path d="M2.99564 26.3771C3.02274 26.4049 3.05723 26.4244 3.09504 26.4333C3.13285 26.4422 3.17242 26.4401 3.20908 26.4272C3.2251 26.3939 3.23383 26.3575 3.23469 26.3205C3.23446 26.2524 3.20789 26.1871 3.16054 26.1381C3.11319 26.0892 3.04875 26.0605 2.9807 26.058C2.94406 26.1039 2.92537 26.1616 2.92812 26.2203C2.93087 26.279 2.95487 26.3348 2.99564 26.3771Z" fill="white"/>
<path d="M2.92094 26.4582C2.87059 26.3973 2.84072 26.322 2.83555 26.243C2.83038 26.1641 2.85017 26.0856 2.89213 26.0186C2.83475 26.0258 2.7801 26.0473 2.73312 26.081C2.68614 26.1148 2.6483 26.1597 2.62303 26.2117C2.59777 26.2637 2.58587 26.3212 2.58841 26.379C2.59095 26.4368 2.60786 26.493 2.6376 26.5426C2.66734 26.5922 2.70898 26.6336 2.75875 26.6631C2.80851 26.6925 2.86484 26.7091 2.92263 26.7113C2.98042 26.7136 3.03785 26.7013 3.08973 26.6758C3.14161 26.6502 3.1863 26.6121 3.21976 26.565C3.16496 26.5774 3.10774 26.574 3.05482 26.5551C3.00189 26.5362 2.95545 26.5026 2.92094 26.4582Z" fill="#C6C6C6"/>
<path d="M3.66906 26.7325C3.66927 26.7792 3.65562 26.8249 3.62983 26.8638C3.60404 26.9027 3.56728 26.9331 3.52421 26.9511C3.48113 26.9691 3.43367 26.974 3.38785 26.965C3.34203 26.956 3.29991 26.9336 3.26682 26.9007C3.23372 26.8677 3.21116 26.8257 3.20197 26.7799C3.19278 26.7342 3.19739 26.6867 3.21521 26.6435C3.23303 26.6004 3.26326 26.5635 3.30206 26.5375C3.34087 26.5115 3.38651 26.4977 3.43321 26.4977C3.46413 26.4975 3.49478 26.5035 3.52338 26.5152C3.55199 26.527 3.578 26.5443 3.59992 26.5661C3.62183 26.5879 3.63922 26.6138 3.65109 26.6424C3.66295 26.6709 3.66906 26.7015 3.66906 26.7325Z" fill="#DADADA"/>
<path d="M3.47374 26.7421C3.49182 26.7612 3.51514 26.7746 3.54077 26.7805C3.56641 26.7863 3.59321 26.7845 3.61781 26.7752C3.62899 26.7519 3.63482 26.7264 3.63489 26.7005C3.63356 26.6555 3.61518 26.6128 3.58347 26.5809C3.55176 26.5489 3.50909 26.5303 3.46414 26.5287C3.43983 26.5595 3.42742 26.598 3.42918 26.6372C3.43095 26.6764 3.44676 26.7136 3.47374 26.7421Z" fill="white"/>
<path d="M3.42358 26.7966C3.38946 26.7555 3.36923 26.7046 3.36578 26.6513C3.36233 26.598 3.37584 26.545 3.40437 26.4999C3.36569 26.5048 3.32886 26.5193 3.29719 26.5421C3.26552 26.5648 3.24001 26.5951 3.22297 26.6302C3.20593 26.6652 3.1979 26.704 3.19959 26.743C3.20129 26.7819 3.21266 26.8198 3.23268 26.8533C3.2527 26.8868 3.28073 26.9147 3.31426 26.9346C3.34778 26.9545 3.38574 26.9658 3.4247 26.9674C3.46366 26.9689 3.5024 26.9608 3.53742 26.9436C3.57244 26.9265 3.60263 26.9009 3.62528 26.8691C3.58824 26.8773 3.54963 26.8749 3.51393 26.862C3.47823 26.8492 3.4469 26.8265 3.42358 26.7966Z" fill="#C6C6C6"/>
<path d="M2.72884 25.9513C2.72905 25.9875 2.7185 26.0229 2.69853 26.0531C2.67856 26.0833 2.65007 26.1068 2.61668 26.1208C2.58329 26.1347 2.54651 26.1384 2.51101 26.1314C2.47551 26.1244 2.4429 26.107 2.41731 26.0814C2.39173 26.0558 2.37432 26.0232 2.36732 25.9877C2.36031 25.9522 2.36401 25.9154 2.37796 25.8821C2.3919 25.8487 2.41546 25.8202 2.44563 25.8002C2.4758 25.7802 2.51123 25.7697 2.54742 25.7699C2.59545 25.7702 2.64143 25.7894 2.6754 25.8233C2.70936 25.8573 2.72856 25.9033 2.72884 25.9513Z" fill="#F9B233"/>
<path d="M10.8706 28.1177V29.1967L8.58035 28.6919C8.58035 28.6919 8.69454 27.5638 10.8706 28.1177Z" fill="#2D2D2D"/>
<path d="M9.69129 28.2458C9.6477 28.3065 9.62308 28.3788 9.62055 28.4534C9.61802 28.5281 9.63769 28.6019 9.67707 28.6654C9.71646 28.7289 9.77379 28.7793 9.84182 28.8102C9.90985 28.8411 9.98551 28.8511 10.0593 28.8391C10.133 28.827 10.2015 28.7933 10.2561 28.7423C10.3107 28.6912 10.3489 28.6252 10.366 28.5524C10.383 28.4797 10.3781 28.4035 10.3518 28.3335C10.3256 28.2636 10.2792 28.203 10.2185 28.1594C10.137 28.1012 10.0358 28.0777 9.93706 28.0939C9.83828 28.1101 9.74992 28.1647 9.69129 28.2458Z" fill="#DADADA"/>
<path d="M9.93676 28.4411C9.89528 28.4487 9.8525 28.4441 9.81352 28.4281C9.77454 28.412 9.741 28.385 9.71692 28.3504C9.72452 28.3093 9.7409 28.2704 9.76494 28.2362C9.8081 28.1763 9.87273 28.1355 9.94533 28.1221C10.0179 28.1088 10.0929 28.1241 10.1545 28.1647C10.1586 28.2295 10.1387 28.2935 10.0985 28.3446C10.0583 28.3956 10.0007 28.4299 9.93676 28.4411Z" fill="white"/>
<path d="M9.9517 28.5563C10.0346 28.5344 10.1086 28.487 10.163 28.4207C10.2174 28.3544 10.2495 28.2726 10.2548 28.187C10.301 28.2297 10.3359 28.2832 10.3562 28.3428C10.3765 28.4023 10.3816 28.466 10.3711 28.528C10.3605 28.59 10.3347 28.6485 10.2958 28.6979C10.257 28.7474 10.2064 28.7865 10.1487 28.8114C10.0909 28.8364 10.0278 28.8466 9.96517 28.841C9.9025 28.8354 9.84221 28.8143 9.78979 28.7795C9.73736 28.7447 9.69444 28.6974 9.66495 28.6418C9.63545 28.5863 9.62029 28.5242 9.62087 28.4613C9.66124 28.507 9.71382 28.5402 9.77243 28.557C9.83104 28.5738 9.89323 28.5736 9.9517 28.5563Z" fill="#C6C6C6"/>
<path d="M9.11821 28.329C9.08903 28.3701 9.07269 28.4189 9.07124 28.4693C9.06979 28.5197 9.0833 28.5694 9.11007 28.6121C9.13683 28.6548 9.17565 28.6886 9.22163 28.7093C9.2676 28.7299 9.31866 28.7365 9.36837 28.7282C9.41808 28.7198 9.46421 28.697 9.50093 28.6624C9.53765 28.6279 9.56331 28.5833 9.57468 28.5342C9.58606 28.4851 9.58262 28.4337 9.56482 28.3865C9.54702 28.3394 9.51564 28.2986 9.47466 28.2692C9.44735 28.2497 9.41646 28.2357 9.38374 28.2281C9.35103 28.2206 9.31714 28.2195 9.28402 28.2251C9.2509 28.2306 9.21921 28.2427 9.19076 28.2605C9.1623 28.2783 9.13765 28.3016 9.11821 28.329Z" fill="#DADADA"/>
<path d="M9.28469 28.4603C9.25648 28.4652 9.22743 28.462 9.20097 28.4511C9.1745 28.4401 9.15171 28.4218 9.13528 28.3984C9.14123 28.367 9.15482 28.3377 9.17486 28.3129C9.1949 28.2881 9.22076 28.2687 9.25013 28.2563C9.2795 28.244 9.31148 28.2391 9.3432 28.2421C9.37493 28.2451 9.40543 28.2559 9.43197 28.2735C9.43472 28.3173 9.42122 28.3606 9.39404 28.395C9.36687 28.4295 9.32793 28.4527 9.28469 28.4603Z" fill="white"/>
<path d="M9.29429 28.5404C9.35048 28.5258 9.40059 28.4938 9.43741 28.4489C9.47423 28.404 9.49586 28.3486 9.49919 28.2906C9.53065 28.3193 9.55443 28.3554 9.56836 28.3956C9.5823 28.4358 9.58595 28.4789 9.57898 28.5209C9.57201 28.5629 9.55465 28.6025 9.52847 28.636C9.50229 28.6696 9.46813 28.6961 9.4291 28.713C9.39007 28.73 9.34741 28.737 9.30502 28.7332C9.26262 28.7295 9.22183 28.7152 9.18636 28.6917C9.15089 28.6682 9.12188 28.6361 9.10196 28.5985C9.08204 28.5609 9.07184 28.5189 9.07231 28.4763C9.09927 28.5072 9.13453 28.5296 9.17389 28.541C9.21325 28.5523 9.25505 28.5521 9.29429 28.5404Z" fill="#C6C6C6"/>
<path d="M10.4415 28.2362C10.419 28.268 10.4063 28.3057 10.4052 28.3447C10.404 28.3837 10.4145 28.4221 10.4351 28.4552C10.4558 28.4882 10.4858 28.5144 10.5214 28.5304C10.5569 28.5465 10.5964 28.5516 10.6349 28.5452C10.6733 28.5388 10.709 28.5212 10.7375 28.4945C10.7659 28.4679 10.7859 28.4334 10.7948 28.3955C10.8036 28.3575 10.8011 28.3177 10.7874 28.2812C10.7738 28.2447 10.7496 28.2131 10.7179 28.1903C10.6752 28.1598 10.6221 28.1475 10.5703 28.1561C10.5185 28.1647 10.4722 28.1935 10.4415 28.2362Z" fill="#F9B233"/>
<g style="mix-blend-mode:multiply">
<path d="M4.45132 27.0985C5.33703 27.5437 6.26704 27.8946 7.22605 28.1454V29.7537C6.15885 29.4848 4.85259 28.8445 4.45132 28.6417V27.0985ZM4.22614 26.7335V28.7804C4.22614 28.7804 6.11082 29.774 7.45016 30.0355V27.964C7.45016 27.964 6.15351 27.7186 4.22614 26.7335Z" fill="#B2B2B2"/>
</g>
<g style="mix-blend-mode:multiply">
<path d="M4.5303 27.3044V27.5008C4.5303 27.5008 5.25814 28.028 7.14603 28.4517V28.2553C6.23669 28.0527 5.35745 27.7331 4.5303 27.3044Z" fill="#C6C6C6"/>
<path d="M4.5303 27.6471V27.8435C4.5303 27.8435 5.30723 28.3579 7.14603 28.7943V28.5969C6.23665 28.395 5.35738 28.0757 4.5303 27.6471Z" fill="#C6C6C6"/>
<path d="M4.5303 27.9896V28.186C4.5303 28.186 5.25814 28.7132 7.14603 29.1369V28.9394C6.23665 28.7375 5.35738 28.4182 4.5303 27.9896Z" fill="#C6C6C6"/>
<path d="M4.5303 28.3312V28.5286C4.5303 28.5286 5.3766 29.0419 7.14603 29.4795V29.2821C6.23653 29.08 5.35722 28.7604 4.5303 28.3312Z" fill="#C6C6C6"/>
</g>
<path d="M13.1277 17.9633L10.8065 18.6121C10.8065 18.6121 9.32631 18.9269 9.33805 20.9237H10.1118C10.1118 20.9237 10.1545 19.6612 11.2473 19.4435L12.8171 19.2023L13.1277 17.9633Z" fill="#2D2D2D"/>
<path d="M10.2612 23.4572L8.90262 23.0869V20.5171L10.2612 20.8874V23.4572Z" fill="#2D2D2D"/>
<path d="M10.2612 20.8874L10.4053 20.8052V23.2437L10.2612 23.4572V20.8874Z" fill="#0E0E0C"/>
<path d="M8.90262 20.5171L9.09365 20.4637L10.4052 20.8053L10.2612 20.8874L8.90262 20.5171Z" fill="#414142"/>
<path d="M15.8245 27.8775C15.8245 27.8775 15.2909 24.963 17.5641 23.7549C17.5641 23.7549 19.7263 22.3387 20.1072 25.2148L15.8245 27.8775Z" fill="#181817"/>
<path d="M29.1486 20.0731C29.1486 20.0731 28.615 17.1585 30.8881 15.9504C30.8881 15.9504 33.0503 14.5343 33.4313 17.4104L29.1486 20.0731Z" fill="#181817"/>
<path d="M33.8795 17.2312C33.8795 17.2312 33.3459 14.3156 35.6201 13.1086C35.6201 13.1086 37.7812 11.6913 38.1622 14.5685L33.8795 17.2312Z" fill="#181817"/>
<path d="M10.1395 12.6005L14.3411 14.2013C14.3411 14.2013 15.8811 12.4148 19.342 11.1992L14.99 9.79907C14.99 9.79907 13.3742 9.94315 10.1395 12.6005Z" fill="#2D2D2D"/>
<path d="M14.3411 14.2024L19.3421 11.6411V11.1971C19.3421 11.1971 15.7104 12.45 14.3411 14.2024Z" fill="#050502"/>
<path d="M24.2288 5.52819L28.4304 7.129C28.4304 7.129 29.9693 5.3425 33.4313 4.12695L29.0792 2.72998C29.0792 2.72998 27.4624 2.87192 24.2288 5.52819Z" fill="#2D2D2D"/>
<path d="M28.4304 7.1301L33.4313 4.56881V4.12805C33.4313 4.12805 29.7996 5.37775 28.4304 7.1301Z" fill="#050502"/>
<path d="M32.5519 0.325589C32.5519 0.325589 33.1741 -0.183468 33.823 0.0726611L39.3981 2.51656C39.3981 2.51656 39.2913 2.48561 38.8453 2.73L32.5519 0.325589Z" fill="#403F40"/>
<path d="M19.6451 27.0377C19.1115 28.3717 17.9739 29.1721 17.0977 28.8231C16.2215 28.4742 15.9419 27.1103 16.4723 25.7763C17.0027 24.4423 18.1436 23.6418 19.0198 23.9908C19.8959 24.3398 20.1755 25.7037 19.6451 27.0377Z" fill="#3F3E3F"/>
<path d="M18.8874 26.7976C18.6099 27.4955 18.0144 27.9128 17.5555 27.7303C17.0966 27.5478 16.9515 26.836 17.229 26.1381C17.5065 25.4401 18.103 25.0228 18.5609 25.2053C19.0187 25.3878 19.1649 26.1018 18.8874 26.7976Z" fill="#181817"/>
<path d="M18.8383 26.645C18.5929 27.2619 18.0657 27.6311 17.6644 27.47C17.2631 27.3088 17.1308 26.6792 17.3752 26.0623C17.6196 25.4455 18.1478 25.0762 18.5491 25.2374C18.9504 25.3985 19.0838 26.0292 18.8383 26.645Z" fill="#DADADA"/>
<path d="M18.8383 26.645C18.5929 27.2619 18.0657 27.6311 17.6644 27.47C17.2631 27.3088 17.1308 26.6792 17.3752 26.0623C17.6196 25.4455 18.1478 25.0762 18.5491 25.2374C18.9504 25.3985 19.0838 26.0292 18.8383 26.645Z" fill="#DADADA"/>
<path d="M18.5747 26.5115C18.4104 26.9245 18.0731 27.1775 17.8202 27.0771C17.5673 26.9768 17.5 26.5606 17.6601 26.1476C17.8202 25.7346 18.1617 25.4827 18.4146 25.5831C18.6676 25.6834 18.7391 26.1017 18.5747 26.5115Z" fill="#878787"/>
<path d="M18.1895 25.4198C18.1895 25.4364 18.1845 25.4527 18.1753 25.4666C18.166 25.4805 18.1528 25.4913 18.1374 25.4977C18.122 25.504 18.1051 25.5057 18.0887 25.5024C18.0724 25.4992 18.0573 25.4912 18.0455 25.4794C18.0337 25.4676 18.0257 25.4526 18.0225 25.4362C18.0192 25.4199 18.0209 25.4029 18.0273 25.3875C18.0336 25.3721 18.0444 25.3589 18.0583 25.3497C18.0722 25.3404 18.0885 25.3354 18.1052 25.3354C18.1162 25.3354 18.1272 25.3376 18.1374 25.3419C18.1476 25.3461 18.1569 25.3523 18.1648 25.3601C18.1726 25.368 18.1788 25.3773 18.183 25.3875C18.1873 25.3977 18.1895 25.4087 18.1895 25.4198Z" fill="#DADADA"/>
<path d="M18.119 25.423C18.1257 25.4297 18.1342 25.4344 18.1435 25.4364C18.1527 25.4385 18.1624 25.4379 18.1713 25.4347C18.1729 25.4259 18.1729 25.4169 18.1713 25.4081C18.1713 25.3917 18.165 25.376 18.1536 25.3643C18.1423 25.3525 18.1268 25.3456 18.1105 25.3451C18.102 25.3568 18.0983 25.3713 18.0998 25.3857C18.1014 25.4001 18.1082 25.4133 18.119 25.423Z" fill="white"/>
<path d="M18.1062 25.4422C18.0937 25.4275 18.0862 25.4093 18.0848 25.39C18.0835 25.3708 18.0884 25.3517 18.0988 25.3354C18.0851 25.3374 18.0722 25.3426 18.0611 25.3507C18.05 25.3589 18.0411 25.3696 18.0352 25.3821C18.0293 25.3945 18.0265 25.4082 18.0272 25.4219C18.0278 25.4356 18.0319 25.449 18.039 25.4608C18.0461 25.4726 18.056 25.4824 18.0678 25.4895C18.0796 25.4965 18.093 25.5005 18.1068 25.5011C18.1205 25.5016 18.1342 25.4988 18.1466 25.4928C18.159 25.4868 18.1697 25.4779 18.1777 25.4667C18.1647 25.4697 18.1511 25.469 18.1385 25.4647C18.1258 25.4603 18.1147 25.4525 18.1062 25.4422Z" fill="#C6C6C6"/>
<path d="M18.5865 25.391C18.5865 25.4133 18.5776 25.4348 18.5618 25.4506C18.546 25.4664 18.5245 25.4753 18.5022 25.4753C18.4798 25.4753 18.4584 25.4664 18.4425 25.4506C18.4267 25.4348 18.4178 25.4133 18.4178 25.391C18.4178 25.3686 18.4267 25.3471 18.4425 25.3313C18.4584 25.3155 18.4798 25.3066 18.5022 25.3066C18.5245 25.3066 18.546 25.3155 18.5618 25.3313C18.5776 25.3471 18.5865 25.3686 18.5865 25.391Z" fill="#DADADA"/>
<path d="M18.516 25.3953C18.5228 25.4019 18.5313 25.4064 18.5405 25.4085C18.5498 25.4106 18.5594 25.4101 18.5683 25.407C18.5699 25.3982 18.5699 25.3891 18.5683 25.3803C18.5683 25.3639 18.562 25.3481 18.5507 25.3361C18.5394 25.3242 18.5239 25.3171 18.5075 25.3163C18.499 25.3282 18.4952 25.3428 18.4967 25.3574C18.4983 25.3719 18.5052 25.3854 18.516 25.3953Z" fill="white"/>
<path d="M18.4979 25.4145C18.4858 25.3996 18.4787 25.3813 18.4775 25.3621C18.4764 25.343 18.4813 25.324 18.4915 25.3077C18.4775 25.3094 18.4642 25.3146 18.4528 25.3227C18.4413 25.3308 18.4321 25.3417 18.4259 25.3543C18.4197 25.3669 18.4168 25.3809 18.4173 25.3949C18.4179 25.4089 18.422 25.4226 18.4292 25.4346C18.4364 25.4467 18.4465 25.4568 18.4586 25.4639C18.4706 25.4711 18.4843 25.4751 18.4983 25.4757C18.5124 25.4762 18.5263 25.4733 18.5389 25.467C18.5515 25.4608 18.5623 25.4515 18.5704 25.4401C18.5572 25.4428 18.5434 25.4418 18.5306 25.4373C18.5178 25.4328 18.5065 25.4249 18.4979 25.4145Z" fill="#C6C6C6"/>
<path d="M18.8533 25.7154C18.8533 25.7321 18.8483 25.7484 18.8391 25.7623C18.8298 25.7761 18.8166 25.7869 18.8012 25.7933C18.7858 25.7997 18.7689 25.8014 18.7525 25.7981C18.7362 25.7948 18.7211 25.7868 18.7094 25.775C18.6976 25.7632 18.6895 25.7482 18.6863 25.7319C18.683 25.7155 18.6847 25.6986 18.6911 25.6831C18.6975 25.6677 18.7083 25.6546 18.7221 25.6453C18.736 25.636 18.7523 25.6311 18.769 25.6311C18.78 25.6311 18.791 25.6333 18.8012 25.6375C18.8115 25.6418 18.8208 25.648 18.8286 25.6558C18.8364 25.6636 18.8426 25.6729 18.8469 25.6831C18.8511 25.6934 18.8533 25.7043 18.8533 25.7154Z" fill="#DADADA"/>
<path d="M18.7839 25.7187C18.7903 25.7254 18.7986 25.7303 18.8077 25.7325C18.8167 25.7348 18.8263 25.7344 18.8351 25.7315C18.8394 25.7232 18.8416 25.7141 18.8415 25.7048C18.8416 25.6883 18.8353 25.6725 18.8239 25.6606C18.8126 25.6487 18.7971 25.6416 18.7807 25.6407C18.7714 25.6518 18.7665 25.6659 18.7671 25.6803C18.7677 25.6948 18.7737 25.7084 18.7839 25.7187Z" fill="white"/>
<path d="M18.7657 25.7389C18.7534 25.7242 18.7461 25.7058 18.7449 25.6866C18.7437 25.6674 18.7488 25.6483 18.7593 25.6322C18.7386 25.6354 18.7199 25.6462 18.7067 25.6625C18.6936 25.6788 18.6869 25.6994 18.6881 25.7203C18.6893 25.7412 18.6983 25.761 18.7132 25.7756C18.7281 25.7903 18.748 25.7989 18.769 25.7998C18.7823 25.7999 18.7956 25.7968 18.8075 25.7906C18.8194 25.7845 18.8296 25.7755 18.8373 25.7645C18.8241 25.7673 18.8105 25.7663 18.7979 25.7618C18.7853 25.7573 18.7741 25.7494 18.7657 25.7389Z" fill="#C6C6C6"/>
<path d="M18.897 26.2085C18.897 26.2308 18.8881 26.2523 18.8723 26.2681C18.8565 26.2839 18.8351 26.2928 18.8127 26.2928C18.7903 26.2928 18.7689 26.2839 18.7531 26.2681C18.7373 26.2523 18.7284 26.2308 18.7284 26.2085C18.7284 26.1861 18.7373 26.1647 18.7531 26.1488C18.7689 26.133 18.7903 26.1241 18.8127 26.1241C18.8351 26.1241 18.8565 26.133 18.8723 26.1488C18.8881 26.1647 18.897 26.1861 18.897 26.2085Z" fill="#DADADA"/>
<path d="M18.8277 26.2085C18.8341 26.2152 18.8424 26.2199 18.8515 26.222C18.8606 26.2241 18.8701 26.2235 18.8789 26.2203C18.8833 26.2121 18.8855 26.2029 18.8853 26.1936C18.885 26.1771 18.8784 26.1614 18.8669 26.1497C18.8554 26.138 18.8398 26.1312 18.8234 26.1306C18.8142 26.1418 18.8095 26.156 18.8103 26.1704C18.8111 26.1848 18.8173 26.1984 18.8277 26.2085Z" fill="white"/>
<path d="M18.8095 26.2298C18.797 26.2151 18.7895 26.1969 18.7881 26.1776C18.7868 26.1584 18.7917 26.1393 18.802 26.123C18.78 26.1245 18.7594 26.1346 18.7447 26.1512C18.7301 26.1678 18.7227 26.1895 18.7241 26.2116C18.7256 26.2337 18.7357 26.2543 18.7523 26.2689C18.7689 26.2835 18.7906 26.2909 18.8127 26.2895C18.8261 26.2897 18.8393 26.2865 18.8512 26.2804C18.8631 26.2743 18.8734 26.2653 18.881 26.2543C18.868 26.2577 18.8543 26.2572 18.8416 26.2528C18.8288 26.2485 18.8177 26.2404 18.8095 26.2298Z" fill="#C6C6C6"/>
<path d="M18.769 26.6056C18.769 26.6223 18.764 26.6386 18.7547 26.6525C18.7454 26.6664 18.7321 26.6772 18.7167 26.6835C18.7012 26.6899 18.6842 26.6915 18.6678 26.6882C18.6514 26.6848 18.6364 26.6767 18.6247 26.6648C18.6129 26.6529 18.605 26.6378 18.6018 26.6213C18.5987 26.6049 18.6005 26.5879 18.6071 26.5725C18.6136 26.5572 18.6246 26.5441 18.6386 26.5349C18.6526 26.5258 18.669 26.521 18.6857 26.5212C18.7079 26.5215 18.7291 26.5305 18.7446 26.5463C18.7602 26.5621 18.769 26.5834 18.769 26.6056Z" fill="#DADADA"/>
<path d="M18.6996 26.6087C18.7061 26.6157 18.7145 26.6206 18.7239 26.6227C18.7332 26.6248 18.743 26.624 18.7519 26.6204C18.7536 26.6116 18.7536 26.6025 18.7519 26.5937C18.7519 26.5774 18.7455 26.5617 18.7342 26.5499C18.7228 26.5382 18.7074 26.5313 18.691 26.5308C18.6826 26.5425 18.6788 26.557 18.6804 26.5713C18.682 26.5857 18.6888 26.599 18.6996 26.6087Z" fill="white"/>
<path d="M18.6814 26.6289C18.6694 26.614 18.6622 26.5957 18.6611 26.5766C18.6599 26.5575 18.6648 26.5384 18.675 26.5222C18.6611 26.5239 18.6478 26.529 18.6363 26.5372C18.6249 26.5453 18.6156 26.5562 18.6095 26.5688C18.6033 26.5814 18.6003 26.5953 18.6009 26.6094C18.6015 26.6234 18.6055 26.6371 18.6127 26.6491C18.6199 26.6612 18.63 26.6713 18.6421 26.6784C18.6542 26.6856 18.6679 26.6896 18.6819 26.6902C18.6959 26.6907 18.7099 26.6877 18.7225 26.6815C18.7351 26.6753 18.7459 26.666 18.754 26.6545C18.7407 26.6574 18.7269 26.6565 18.7141 26.652C18.7013 26.6475 18.69 26.6395 18.6814 26.6289Z" fill="#C6C6C6"/>
<path d="M18.5587 26.9864C18.5589 27.0032 18.5541 27.0197 18.545 27.0337C18.5358 27.0477 18.5226 27.0587 18.5072 27.0652C18.4917 27.0717 18.4747 27.0735 18.4582 27.0702C18.4418 27.067 18.4267 27.059 18.4148 27.0471C18.4029 27.0353 18.3949 27.0201 18.3917 27.0037C18.3885 26.9872 18.3902 26.9702 18.3967 26.9548C18.4032 26.9393 18.4142 26.9262 18.4282 26.917C18.4423 26.9078 18.4587 26.903 18.4755 26.9032C18.4976 26.9032 18.5187 26.912 18.5343 26.9276C18.5499 26.9432 18.5587 26.9644 18.5587 26.9864Z" fill="#DADADA"/>
<path d="M18.4893 26.9907C18.496 26.9972 18.5043 27.0018 18.5133 27.0038C18.5223 27.0059 18.5318 27.0054 18.5406 27.0025C18.5448 26.9942 18.547 26.9851 18.547 26.9758C18.5467 26.9594 18.5404 26.9437 18.5291 26.9319C18.5178 26.92 18.5025 26.9128 18.4861 26.9117C18.477 26.923 18.4722 26.9373 18.4728 26.9518C18.4734 26.9664 18.4793 26.9802 18.4893 26.9907Z" fill="white"/>
<path d="M18.4712 27.0099C18.4591 26.995 18.452 26.9767 18.4509 26.9576C18.4497 26.9384 18.4546 26.9194 18.4648 26.9032C18.4441 26.9065 18.4253 26.9174 18.4122 26.9338C18.399 26.9502 18.3925 26.9709 18.3938 26.9918C18.3952 27.0128 18.4043 27.0325 18.4194 27.0471C18.4345 27.0617 18.4545 27.0701 18.4755 27.0707C18.4888 27.0706 18.502 27.0674 18.5138 27.0613C18.5257 27.0551 18.5359 27.0463 18.5438 27.0355C18.5305 27.0384 18.5167 27.0375 18.5039 27.033C18.4911 27.0284 18.4798 27.0205 18.4712 27.0099Z" fill="#C6C6C6"/>
<path d="M18.1895 27.2596C18.1895 27.2763 18.1845 27.2926 18.1753 27.3064C18.166 27.3203 18.1528 27.3311 18.1374 27.3375C18.122 27.3439 18.1051 27.3455 18.0887 27.3423C18.0724 27.339 18.0573 27.331 18.0455 27.3192C18.0337 27.3074 18.0257 27.2924 18.0225 27.2761C18.0192 27.2597 18.0209 27.2427 18.0273 27.2273C18.0336 27.2119 18.0444 27.1988 18.0583 27.1895C18.0722 27.1802 18.0885 27.1753 18.1052 27.1753C18.1275 27.1753 18.149 27.1842 18.1648 27.2C18.1806 27.2158 18.1895 27.2372 18.1895 27.2596Z" fill="#DADADA"/>
<path d="M18.119 27.2628C18.1257 27.2695 18.1342 27.2742 18.1435 27.2763C18.1527 27.2784 18.1624 27.2778 18.1713 27.2746C18.1729 27.2658 18.1729 27.2567 18.1713 27.2479C18.1713 27.2316 18.165 27.2159 18.1536 27.2041C18.1423 27.1924 18.1268 27.1855 18.1105 27.1849C18.102 27.1967 18.0983 27.2111 18.0998 27.2255C18.1014 27.2399 18.1082 27.2532 18.119 27.2628Z" fill="white"/>
<path d="M18.1062 27.282C18.0937 27.2674 18.0862 27.2491 18.0848 27.2299C18.0835 27.2107 18.0884 27.1915 18.0988 27.1753C18.0851 27.1772 18.0722 27.1825 18.0611 27.1906C18.05 27.1987 18.0411 27.2095 18.0352 27.2219C18.0293 27.2343 18.0265 27.248 18.0272 27.2617C18.0278 27.2755 18.0319 27.2889 18.039 27.3006C18.0461 27.3124 18.056 27.3223 18.0678 27.3293C18.0796 27.3363 18.093 27.3403 18.1068 27.3409C18.1205 27.3415 18.1342 27.3387 18.1466 27.3327C18.159 27.3267 18.1697 27.3177 18.1777 27.3066C18.1647 27.3096 18.1511 27.3088 18.1385 27.3045C18.1258 27.3002 18.1147 27.2924 18.1062 27.282Z" fill="#C6C6C6"/>
<path d="M17.8117 27.2874C17.8117 27.3042 17.8067 27.3205 17.7974 27.3344C17.7881 27.3483 17.7748 27.3591 17.7594 27.3654C17.7439 27.3718 17.7269 27.3734 17.7105 27.37C17.6941 27.3667 17.6791 27.3586 17.6674 27.3467C17.6556 27.3348 17.6477 27.3196 17.6445 27.3032C17.6414 27.2868 17.6432 27.2698 17.6498 27.2544C17.6563 27.239 17.6673 27.226 17.6813 27.2168C17.6953 27.2077 17.7117 27.2029 17.7284 27.2031C17.7506 27.2034 17.7718 27.2124 17.7873 27.2282C17.8029 27.244 17.8117 27.2653 17.8117 27.2874Z" fill="#DADADA"/>
<path d="M17.7423 27.2907C17.7488 27.2974 17.7571 27.3021 17.7662 27.3042C17.7753 27.3063 17.7848 27.3056 17.7935 27.3024C17.7979 27.2942 17.8001 27.285 17.7999 27.2757C17.7999 27.2594 17.7936 27.2437 17.7822 27.2319C17.7709 27.2202 17.7554 27.2133 17.7391 27.2128C17.7298 27.2238 17.7249 27.2379 17.7255 27.2523C17.7261 27.2668 17.7321 27.2805 17.7423 27.2907Z" fill="white"/>
<path d="M17.7241 27.3098C17.7118 27.2951 17.7044 27.2768 17.7033 27.2575C17.7021 27.2383 17.7072 27.2192 17.7177 27.2031C17.697 27.2064 17.6782 27.2173 17.6651 27.2337C17.6519 27.2501 17.6454 27.2708 17.6467 27.2918C17.6481 27.3127 17.6572 27.3324 17.6723 27.347C17.6874 27.3616 17.7074 27.3701 17.7284 27.3707C17.7418 27.3703 17.755 27.3669 17.7668 27.3606C17.7787 27.3543 17.7889 27.3453 17.7967 27.3344C17.7835 27.3379 17.7696 27.3374 17.7567 27.333C17.7438 27.3287 17.7325 27.3206 17.7241 27.3098Z" fill="#C6C6C6"/>
<path d="M17.5395 27.0153C17.5395 27.032 17.5346 27.0483 17.5253 27.0622C17.5161 27.0761 17.5029 27.0869 17.4875 27.0932C17.4721 27.0996 17.4551 27.1013 17.4388 27.098C17.4224 27.0948 17.4074 27.0868 17.3956 27.075C17.3838 27.0632 17.3758 27.0481 17.3725 27.0318C17.3693 27.0154 17.3709 26.9985 17.3773 26.9831C17.3837 26.9677 17.3945 26.9545 17.4084 26.9452C17.4222 26.936 17.4385 26.931 17.4552 26.931C17.4663 26.9309 17.4774 26.933 17.4877 26.9372C17.4979 26.9413 17.5073 26.9476 17.5152 26.9554C17.523 26.9633 17.5292 26.9726 17.5334 26.9829C17.5376 26.9932 17.5397 27.0042 17.5395 27.0153Z" fill="#DADADA"/>
<path d="M17.4659 27.0185C17.4724 27.0252 17.4807 27.0299 17.4898 27.032C17.4989 27.034 17.5084 27.0334 17.5171 27.0302C17.5214 27.022 17.5236 27.0128 17.5235 27.0035C17.5233 26.9871 17.5167 26.9714 17.5052 26.9597C17.4936 26.9479 17.4781 26.9411 17.4616 26.9406C17.4524 26.9517 17.4478 26.9659 17.4486 26.9803C17.4494 26.9948 17.4555 27.0084 17.4659 27.0185Z" fill="white"/>
<path d="M17.452 27.0378C17.4395 27.0231 17.4319 27.0049 17.4306 26.9856C17.4293 26.9664 17.4341 26.9473 17.4445 26.931C17.4225 26.9324 17.4018 26.9426 17.3872 26.9592C17.3726 26.9758 17.3652 26.9975 17.3666 27.0196C17.368 27.0417 17.3782 27.0623 17.3948 27.0769C17.4114 27.0915 17.4331 27.0989 17.4552 27.0975C17.4686 27.0977 17.4818 27.0945 17.4937 27.0884C17.5056 27.0822 17.5159 27.0733 17.5235 27.0623C17.5105 27.0656 17.4968 27.065 17.4841 27.0606C17.4714 27.0563 17.4603 27.0483 17.452 27.0378Z" fill="#C6C6C6"/>
<path d="M17.4659 26.5597C17.4659 26.5763 17.4609 26.5926 17.4517 26.6065C17.4424 26.6204 17.4292 26.6312 17.4138 26.6375C17.3984 26.6439 17.3815 26.6456 17.3651 26.6423C17.3488 26.6391 17.3338 26.6311 17.322 26.6193C17.3102 26.6075 17.3021 26.5925 17.2989 26.5761C17.2956 26.5597 17.2973 26.5428 17.3037 26.5274C17.3101 26.512 17.3209 26.4988 17.3347 26.4896C17.3486 26.4803 17.3649 26.4753 17.3816 26.4753C17.4039 26.4753 17.4254 26.4842 17.4412 26.5C17.457 26.5158 17.4659 26.5373 17.4659 26.5597Z" fill="#DADADA"/>
<path d="M17.3987 26.5628C17.4051 26.5695 17.4134 26.5742 17.4225 26.5763C17.4316 26.5784 17.4411 26.5777 17.4499 26.5745C17.4533 26.566 17.4551 26.557 17.4552 26.5478C17.4552 26.5315 17.4489 26.5158 17.4375 26.504C17.4262 26.4923 17.4107 26.4854 17.3944 26.4849C17.3852 26.496 17.3806 26.5102 17.3813 26.5246C17.3821 26.5391 17.3883 26.5527 17.3987 26.5628Z" fill="white"/>
<path d="M17.3805 26.5821C17.368 26.5674 17.3605 26.5492 17.3591 26.5299C17.3578 26.5107 17.3627 26.4916 17.3731 26.4753C17.351 26.4768 17.3304 26.4869 17.3158 26.5035C17.3012 26.5201 17.2937 26.5418 17.2952 26.5639C17.2966 26.586 17.3067 26.6066 17.3233 26.6212C17.3399 26.6358 17.3617 26.6432 17.3837 26.6418C17.3971 26.642 17.4104 26.6388 17.4223 26.6327C17.4342 26.6266 17.4444 26.6176 17.452 26.6066C17.439 26.6099 17.4253 26.6093 17.4126 26.6049C17.4 26.6006 17.3888 26.5926 17.3805 26.5821Z" fill="#C6C6C6"/>
<path d="M17.5886 26.1018C17.5886 26.1185 17.5837 26.1348 17.5743 26.1487C17.565 26.1626 17.5518 26.1734 17.5363 26.1798C17.5209 26.1861 17.5039 26.1877 17.4875 26.1844C17.4711 26.181 17.4561 26.1729 17.4443 26.161C17.4326 26.1491 17.4246 26.134 17.4215 26.1176C17.4184 26.1011 17.4202 26.0841 17.4267 26.0688C17.4333 26.0534 17.4443 26.0403 17.4583 26.0312C17.4723 26.022 17.4887 26.0173 17.5054 26.0175C17.5164 26.0175 17.5273 26.0197 17.5375 26.0239C17.5477 26.0282 17.5569 26.0344 17.5646 26.0422C17.5724 26.0501 17.5785 26.0594 17.5826 26.0696C17.5867 26.0798 17.5888 26.0908 17.5886 26.1018Z" fill="#DADADA"/>
<path d="M17.5193 26.1082C17.5257 26.1149 17.534 26.1196 17.5431 26.1217C17.5522 26.1238 17.5617 26.1232 17.5705 26.1199C17.5749 26.1117 17.5771 26.1025 17.5769 26.0932C17.5769 26.0769 17.5706 26.0612 17.5592 26.0495C17.5479 26.0377 17.5324 26.0308 17.5161 26.0303C17.507 26.0414 17.5023 26.0555 17.5029 26.0698C17.5034 26.0842 17.5093 26.0978 17.5193 26.1082Z" fill="white"/>
<path d="M17.5011 26.1274C17.4887 26.1126 17.4814 26.0943 17.4803 26.075C17.4791 26.0558 17.4842 26.0367 17.4947 26.0206C17.4726 26.022 17.452 26.0322 17.4374 26.0488C17.4228 26.0654 17.4154 26.0871 17.4168 26.1092C17.4182 26.1313 17.4283 26.1519 17.445 26.1665C17.4616 26.1811 17.4833 26.1885 17.5054 26.1871C17.5187 26.187 17.5319 26.1837 17.5437 26.1776C17.5556 26.1715 17.5658 26.1627 17.5737 26.1519C17.5605 26.1554 17.5466 26.1549 17.5337 26.1506C17.5208 26.1462 17.5095 26.1381 17.5011 26.1274Z" fill="#C6C6C6"/>
<path d="M17.8202 25.6973C17.8202 25.714 17.8153 25.7303 17.806 25.7442C17.7967 25.758 17.7836 25.7689 17.7682 25.7752C17.7527 25.7816 17.7358 25.7833 17.7194 25.78C17.7031 25.7768 17.6881 25.7688 17.6763 25.757C17.6645 25.7452 17.6565 25.7301 17.6532 25.7138C17.6499 25.6974 17.6516 25.6805 17.658 25.6651C17.6644 25.6497 17.6752 25.6365 17.6891 25.6272C17.7029 25.618 17.7192 25.613 17.7359 25.613C17.7583 25.613 17.7797 25.6219 17.7955 25.6377C17.8113 25.6535 17.8202 25.675 17.8202 25.6973Z" fill="#DADADA"/>
<path d="M17.7498 25.7005C17.7564 25.7073 17.7649 25.712 17.7742 25.7141C17.7835 25.7162 17.7932 25.7155 17.8021 25.7122C17.8038 25.7034 17.8038 25.6943 17.8021 25.6855C17.8021 25.6692 17.7957 25.6535 17.7844 25.6417C17.773 25.63 17.7576 25.6231 17.7412 25.6226C17.7328 25.6343 17.729 25.6488 17.7306 25.6631C17.7322 25.6775 17.739 25.6908 17.7498 25.7005Z" fill="white"/>
<path d="M17.7316 25.7198C17.7192 25.705 17.7119 25.6867 17.7108 25.6675C17.7096 25.6482 17.7147 25.6292 17.7252 25.613C17.7116 25.6149 17.6987 25.6202 17.6876 25.6283C17.6765 25.6365 17.6676 25.6472 17.6616 25.6596C17.6557 25.6721 17.653 25.6858 17.6536 25.6995C17.6543 25.7132 17.6584 25.7266 17.6654 25.7384C17.6725 25.7502 17.6824 25.76 17.6943 25.767C17.7061 25.7741 17.7195 25.7781 17.7332 25.7786C17.747 25.7792 17.7606 25.7764 17.773 25.7704C17.7854 25.7644 17.7961 25.7554 17.8042 25.7443C17.791 25.7476 17.7772 25.7471 17.7643 25.7428C17.7514 25.7384 17.7401 25.7304 17.7316 25.7198Z" fill="#C6C6C6"/>
<path d="M18.4445 26.4604C18.3271 26.7549 18.0859 26.9363 17.9045 26.8648C17.7231 26.7933 17.6719 26.4945 17.7892 26.2C17.9066 25.9054 18.1489 25.724 18.3293 25.7955C18.5096 25.867 18.5619 26.1647 18.4445 26.4604Z" fill="#EDEDED"/>
<path d="M32.9692 19.2333C32.4356 20.5673 31.298 21.3677 30.4218 21.0187C29.5456 20.6697 29.266 19.3058 29.7964 17.9718C30.3268 16.6378 31.4676 15.8374 32.3438 16.1864C33.22 16.5354 33.4996 17.8992 32.9692 19.2333Z" fill="#3F3E3F"/>
<path d="M32.2115 18.9931C31.934 19.6911 31.3385 20.1084 30.8796 19.927C30.4207 19.7455 30.2756 19.0316 30.553 18.3336C30.8305 17.6357 31.4271 17.2184 31.8849 17.4009C32.3427 17.5834 32.489 18.2952 32.2115 18.9931Z" fill="#181817"/>
<path d="M32.1624 18.8447C31.9169 19.4616 31.3897 19.8308 30.9885 19.6697C30.5872 19.5085 30.4549 18.8789 30.6993 18.262C30.9436 17.6452 31.4719 17.2759 31.8732 17.4371C32.2744 17.5982 32.4068 18.2247 32.1624 18.8447Z" fill="#DADADA"/>
<path d="M32.1624 18.8447C31.9169 19.4616 31.3897 19.8308 30.9885 19.6697C30.5872 19.5085 30.4549 18.8789 30.6993 18.262C30.9436 17.6452 31.4719 17.2759 31.8732 17.4371C32.2744 17.5982 32.4068 18.2247 32.1624 18.8447Z" fill="#DADADA"/>
<path d="M31.8988 18.7081C31.7344 19.1201 31.3972 19.373 31.1443 19.2727C30.8913 19.1724 30.8241 18.7562 30.9842 18.3442C31.1443 17.9323 31.4858 17.6783 31.7387 17.7786C31.9916 17.8789 32.0631 18.2951 31.8988 18.7081Z" fill="#878787"/>
<path d="M31.5135 17.6153C31.5135 17.632 31.5086 17.6483 31.4993 17.6622C31.4901 17.676 31.4769 17.6868 31.4615 17.6932C31.4461 17.6996 31.4291 17.7013 31.4128 17.698C31.3964 17.6948 31.3814 17.6867 31.3696 17.6749C31.3578 17.6631 31.3498 17.6481 31.3465 17.6318C31.3433 17.6154 31.3449 17.5985 31.3513 17.5831C31.3577 17.5676 31.3685 17.5545 31.3824 17.5452C31.3962 17.5359 31.4125 17.531 31.4292 17.531C31.4516 17.531 31.473 17.5399 31.4888 17.5557C31.5046 17.5715 31.5135 17.593 31.5135 17.6153Z" fill="#DADADA"/>
<path d="M31.4463 17.6186C31.4529 17.6254 31.4614 17.6301 31.4707 17.6322C31.48 17.6343 31.4897 17.6336 31.4986 17.6303C31.502 17.6218 31.5038 17.6128 31.5039 17.6036C31.5039 17.5873 31.4976 17.5716 31.4862 17.5598C31.4749 17.5481 31.4594 17.5412 31.4431 17.5406C31.434 17.5518 31.4293 17.5659 31.4299 17.5802C31.4305 17.5946 31.4363 17.6082 31.4463 17.6186Z" fill="white"/>
<path d="M31.426 17.6377C31.4135 17.6231 31.406 17.6048 31.4046 17.5856C31.4033 17.5664 31.4082 17.5472 31.4185 17.531C31.4049 17.5329 31.392 17.5382 31.3809 17.5463C31.3698 17.5544 31.3609 17.5652 31.355 17.5776C31.349 17.59 31.3463 17.6037 31.347 17.6175C31.3476 17.6312 31.3517 17.6446 31.3588 17.6564C31.3659 17.6681 31.3758 17.678 31.3876 17.685C31.3994 17.692 31.4128 17.696 31.4266 17.6966C31.4403 17.6972 31.454 17.6944 31.4664 17.6884C31.4787 17.6824 31.4895 17.6734 31.4975 17.6623C31.4845 17.6655 31.4708 17.665 31.4581 17.6606C31.4454 17.6562 31.4343 17.6483 31.426 17.6377Z" fill="#C6C6C6"/>
<path d="M31.9095 17.5865C31.9097 17.6033 31.9049 17.6198 31.8957 17.6338C31.8865 17.6478 31.8734 17.6588 31.8579 17.6653C31.8425 17.6718 31.8254 17.6736 31.809 17.6703C31.7925 17.6671 31.7774 17.6591 31.7655 17.6472C31.7537 17.6354 31.7456 17.6202 31.7424 17.6038C31.7392 17.5873 31.741 17.5703 31.7475 17.5549C31.754 17.5394 31.765 17.5262 31.779 17.5171C31.793 17.5079 31.8095 17.5031 31.8262 17.5033C31.8483 17.5033 31.8695 17.5121 31.8851 17.5277C31.9007 17.5433 31.9095 17.5645 31.9095 17.5865Z" fill="#DADADA"/>
<path d="M31.8401 17.5908C31.8467 17.5973 31.855 17.6019 31.864 17.6039C31.8731 17.606 31.8825 17.6055 31.8913 17.6026C31.8956 17.5943 31.8978 17.5852 31.8977 17.5759C31.8977 17.5594 31.8914 17.5436 31.8801 17.5317C31.8688 17.5198 31.8533 17.5127 31.8369 17.5118C31.8277 17.5231 31.823 17.5374 31.8236 17.5519C31.8242 17.5665 31.83 17.5803 31.8401 17.5908Z" fill="white"/>
<path d="M31.8219 17.61C31.8099 17.5951 31.8027 17.5768 31.8016 17.5577C31.8004 17.5385 31.8053 17.5195 31.8155 17.5033C31.8016 17.505 31.7883 17.5101 31.7768 17.5182C31.7654 17.5264 31.7561 17.5372 31.75 17.5498C31.7438 17.5625 31.7408 17.5764 31.7414 17.5904C31.742 17.6045 31.746 17.6181 31.7532 17.6302C31.7604 17.6423 31.7705 17.6523 31.7826 17.6595C31.7947 17.6667 31.8084 17.6707 31.8224 17.6712C31.8364 17.6718 31.8504 17.6688 31.863 17.6626C31.8756 17.6564 31.8864 17.6471 31.8945 17.6356C31.8812 17.6385 31.8674 17.6376 31.8546 17.6331C31.8418 17.6285 31.8305 17.6206 31.8219 17.61Z" fill="#C6C6C6"/>
<path d="M32.1773 17.9109C32.1787 17.9227 32.1775 17.9347 32.1739 17.946C32.1703 17.9573 32.1643 17.9677 32.1564 17.9766C32.1485 17.9854 32.1388 17.9925 32.128 17.9973C32.1172 18.0022 32.1054 18.0047 32.0936 18.0047C32.0817 18.0047 32.0699 18.0022 32.0591 17.9973C32.0483 17.9925 32.0386 17.9854 32.0307 17.9766C32.0228 17.9677 32.0168 17.9573 32.0132 17.946C32.0096 17.9347 32.0084 17.9227 32.0098 17.9109C32.0084 17.8991 32.0096 17.8872 32.0132 17.8759C32.0168 17.8646 32.0228 17.8541 32.0307 17.8453C32.0386 17.8364 32.0483 17.8293 32.0591 17.8245C32.0699 17.8196 32.0817 17.8171 32.0936 17.8171C32.1054 17.8171 32.1172 17.8196 32.128 17.8245C32.1388 17.8293 32.1485 17.8364 32.1564 17.8453C32.1643 17.8541 32.1703 17.8646 32.1739 17.8759C32.1775 17.8872 32.1787 17.8991 32.1773 17.9109Z" fill="#DADADA"/>
<path d="M32.108 17.9141C32.1144 17.9209 32.1226 17.9257 32.1317 17.928C32.1408 17.9302 32.1503 17.9299 32.1592 17.9269C32.1634 17.9186 32.1656 17.9095 32.1656 17.9002C32.1656 17.8838 32.1593 17.868 32.148 17.856C32.1366 17.8441 32.1212 17.837 32.1048 17.8362C32.0954 17.8472 32.0906 17.8613 32.0912 17.8758C32.0918 17.8902 32.0978 17.9039 32.108 17.9141Z" fill="white"/>
<path d="M32.0866 17.9345C32.0742 17.9197 32.0669 17.9014 32.0658 17.8822C32.0646 17.863 32.0697 17.8439 32.0802 17.8278C32.0595 17.831 32.0407 17.8419 32.0276 17.8583C32.0144 17.8747 32.0079 17.8954 32.0092 17.9164C32.0106 17.9374 32.0197 17.9571 32.0348 17.9717C32.0499 17.9863 32.0699 17.9947 32.0909 17.9953C32.1041 17.9953 32.1171 17.9921 32.1288 17.9859C32.1405 17.9798 32.1506 17.9709 32.1581 17.9601C32.145 17.963 32.1313 17.9621 32.1187 17.9576C32.1061 17.953 32.0949 17.945 32.0866 17.9345Z" fill="#C6C6C6"/>
<path d="M32.2211 18.403C32.2224 18.4148 32.2212 18.4267 32.2176 18.438C32.214 18.4493 32.2081 18.4598 32.2002 18.4686C32.1923 18.4775 32.1826 18.4846 32.1717 18.4894C32.1609 18.4943 32.1492 18.4968 32.1373 18.4968C32.1254 18.4968 32.1137 18.4943 32.1028 18.4894C32.092 18.4846 32.0823 18.4775 32.0744 18.4686C32.0665 18.4598 32.0606 18.4493 32.057 18.438C32.0533 18.4267 32.0522 18.4148 32.0535 18.403C32.0522 18.3912 32.0533 18.3792 32.057 18.3679C32.0606 18.3566 32.0665 18.3462 32.0744 18.3373C32.0823 18.3285 32.092 18.3214 32.1028 18.3166C32.1137 18.3117 32.1254 18.3092 32.1373 18.3092C32.1492 18.3092 32.1609 18.3117 32.1717 18.3166C32.1826 18.3214 32.1923 18.3285 32.2002 18.3373C32.2081 18.3462 32.214 18.3566 32.2176 18.3679C32.2212 18.3792 32.2224 18.3912 32.2211 18.403Z" fill="#DADADA"/>
<path d="M32.1517 18.4062C32.1582 18.4129 32.1665 18.4176 32.1756 18.4197C32.1847 18.4217 32.1942 18.4211 32.2029 18.4179C32.2073 18.4097 32.2095 18.4005 32.2093 18.3912C32.2091 18.3748 32.2025 18.3591 32.191 18.3474C32.1795 18.3356 32.1639 18.3288 32.1475 18.3282C32.1383 18.3394 32.1336 18.3536 32.1344 18.368C32.1352 18.3825 32.1414 18.3961 32.1517 18.4062Z" fill="white"/>
<path d="M32.1336 18.4253C32.121 18.4107 32.1135 18.3924 32.1122 18.3732C32.1108 18.354 32.1157 18.3348 32.1261 18.3186C32.112 18.3202 32.0986 18.3252 32.087 18.3333C32.0754 18.3415 32.0661 18.3523 32.0598 18.365C32.0536 18.3777 32.0506 18.3917 32.0512 18.4059C32.0517 18.42 32.0559 18.4337 32.0632 18.4459C32.0704 18.458 32.0807 18.4681 32.0929 18.4752C32.1051 18.4823 32.1189 18.4863 32.133 18.4867C32.1471 18.4871 32.1612 18.4839 32.1737 18.4775C32.1863 18.471 32.1971 18.4616 32.2051 18.4499C32.1921 18.4533 32.1783 18.4528 32.1656 18.4484C32.1529 18.444 32.1417 18.436 32.1336 18.4253Z" fill="#C6C6C6"/>
<path d="M32.0941 18.801C32.0941 18.8177 32.0891 18.834 32.0799 18.8478C32.0706 18.8617 32.0575 18.8725 32.042 18.8789C32.0266 18.8853 32.0097 18.8869 31.9933 18.8837C31.977 18.8804 31.962 18.8724 31.9502 18.8606C31.9384 18.8488 31.9303 18.8338 31.9271 18.8174C31.9238 18.8011 31.9255 18.7841 31.9319 18.7687C31.9383 18.7533 31.9491 18.7401 31.9629 18.7309C31.9768 18.7216 31.9931 18.7167 32.0098 18.7167C32.0321 18.717 32.0533 18.7259 32.0691 18.7417C32.0848 18.7574 32.0938 18.7787 32.0941 18.801Z" fill="#DADADA"/>
<path d="M32.0237 18.8042C32.0303 18.8111 32.0387 18.816 32.0479 18.8182C32.0572 18.8205 32.0669 18.8201 32.0759 18.817C32.0794 18.8082 32.0812 18.7988 32.0813 18.7893C32.0813 18.7729 32.075 18.7572 32.0636 18.7455C32.0523 18.7337 32.0368 18.7269 32.0205 18.7263C32.0114 18.7374 32.0067 18.7515 32.0073 18.7659C32.0078 18.7802 32.0137 18.7939 32.0237 18.8042Z" fill="white"/>
<path d="M32.0055 18.8245C31.9934 18.8096 31.9863 18.7913 31.9852 18.7722C31.984 18.753 31.9889 18.734 31.9991 18.7178C31.9852 18.7195 31.9719 18.7246 31.9604 18.7327C31.949 18.7409 31.9397 18.7517 31.9335 18.7643C31.9273 18.7769 31.9244 18.7909 31.925 18.8049C31.9255 18.819 31.9296 18.8326 31.9368 18.8447C31.944 18.8567 31.9541 18.8668 31.9662 18.874C31.9783 18.8811 31.9919 18.8852 32.006 18.8857C32.02 18.8863 32.034 18.8833 32.0465 18.8771C32.0591 18.8708 32.07 18.8616 32.0781 18.8501C32.0648 18.8529 32.051 18.8521 32.0382 18.8475C32.0254 18.843 32.0141 18.835 32.0055 18.8245Z" fill="#C6C6C6"/>
<path d="M31.8828 19.182C31.883 19.1988 31.8782 19.2152 31.869 19.2292C31.8598 19.2433 31.8467 19.2542 31.8312 19.2608C31.8158 19.2673 31.7987 19.269 31.7823 19.2658C31.7658 19.2626 31.7507 19.2545 31.7389 19.2427C31.727 19.2308 31.719 19.2157 31.7157 19.1993C31.7125 19.1828 31.7143 19.1658 31.7208 19.1503C31.7273 19.1349 31.7383 19.1217 31.7523 19.1125C31.7663 19.1033 31.7828 19.0986 31.7995 19.0988C31.8216 19.0988 31.8428 19.1075 31.8584 19.1231C31.874 19.1388 31.8828 19.1599 31.8828 19.182Z" fill="#DADADA"/>
<path d="M31.8134 19.1863C31.82 19.1928 31.8283 19.1973 31.8374 19.1994C31.8464 19.2015 31.8559 19.201 31.8646 19.198C31.8689 19.1898 31.8711 19.1806 31.871 19.1713C31.8708 19.155 31.8644 19.1393 31.8531 19.1274C31.8419 19.1156 31.8265 19.1084 31.8102 19.1073C31.8008 19.1185 31.7959 19.1328 31.7965 19.1474C31.7971 19.162 31.8031 19.1759 31.8134 19.1863Z" fill="white"/>
<path d="M31.7953 19.2055C31.7829 19.1907 31.7756 19.1724 31.7744 19.1532C31.7733 19.134 31.7783 19.1149 31.7889 19.0988C31.7681 19.102 31.7493 19.1129 31.7362 19.1293C31.7231 19.1457 31.7165 19.1664 31.7179 19.1874C31.7192 19.2084 31.7283 19.2281 31.7434 19.2427C31.7585 19.2573 31.7786 19.2657 31.7995 19.2663C31.8129 19.2662 31.826 19.2629 31.8379 19.2568C31.8497 19.2507 31.86 19.2419 31.8679 19.2311C31.8546 19.2339 31.8408 19.233 31.828 19.2285C31.8151 19.224 31.8038 19.216 31.7953 19.2055Z" fill="#C6C6C6"/>
<path d="M31.5135 19.4552C31.5135 19.4718 31.5086 19.4881 31.4993 19.502C31.4901 19.5159 31.4769 19.5267 31.4615 19.5331C31.4461 19.5394 31.4291 19.5411 31.4128 19.5378C31.3964 19.5346 31.3814 19.5266 31.3696 19.5148C31.3578 19.503 31.3498 19.488 31.3465 19.4716C31.3433 19.4553 31.3449 19.4383 31.3513 19.4229C31.3577 19.4075 31.3685 19.3943 31.3824 19.3851C31.3962 19.3758 31.4125 19.3708 31.4292 19.3708C31.4516 19.3708 31.473 19.3797 31.4888 19.3955C31.5046 19.4114 31.5135 19.4328 31.5135 19.4552Z" fill="#DADADA"/>
<path d="M31.4463 19.4584C31.4529 19.4652 31.4614 19.47 31.4707 19.472C31.48 19.4741 31.4897 19.4735 31.4986 19.4701C31.502 19.4616 31.5038 19.4526 31.5039 19.4435C31.5039 19.4271 31.4976 19.4114 31.4862 19.3997C31.4749 19.3879 31.4594 19.381 31.4431 19.3805C31.434 19.3916 31.4293 19.4057 31.4299 19.4201C31.4305 19.4344 31.4363 19.4481 31.4463 19.4584Z" fill="white"/>
<path d="M31.426 19.4776C31.4135 19.4629 31.406 19.4447 31.4046 19.4254C31.4033 19.4062 31.4082 19.3871 31.4185 19.3708C31.4049 19.3728 31.392 19.378 31.3809 19.3862C31.3698 19.3943 31.3609 19.405 31.355 19.4175C31.349 19.4299 31.3463 19.4436 31.347 19.4573C31.3476 19.4711 31.3517 19.4844 31.3588 19.4962C31.3659 19.508 31.3758 19.5178 31.3876 19.5249C31.3994 19.5319 31.4128 19.5359 31.4266 19.5365C31.4403 19.537 31.454 19.5342 31.4664 19.5282C31.4787 19.5222 31.4895 19.5133 31.4975 19.5021C31.4845 19.5054 31.4708 19.5048 31.4581 19.5004C31.4454 19.4961 31.4343 19.4881 31.426 19.4776Z" fill="#C6C6C6"/>
<path d="M31.1357 19.4851C31.1357 19.5018 31.1308 19.5181 31.1215 19.532C31.1122 19.5459 31.0989 19.5567 31.0835 19.5631C31.068 19.5694 31.051 19.571 31.0346 19.5677C31.0182 19.5643 31.0032 19.5562 30.9914 19.5443C30.9797 19.5324 30.9718 19.5173 30.9686 19.5009C30.9655 19.4844 30.9673 19.4674 30.9739 19.4521C30.9804 19.4367 30.9914 19.4236 31.0054 19.4145C31.0194 19.4053 31.0358 19.4006 31.0525 19.4008C31.0747 19.401 31.0959 19.4101 31.1114 19.4258C31.127 19.4416 31.1358 19.4629 31.1357 19.4851Z" fill="#DADADA"/>
<path d="M31.0664 19.4851C31.0729 19.4919 31.0812 19.4965 31.0902 19.4986C31.0993 19.5007 31.1089 19.5001 31.1176 19.4969C31.122 19.4887 31.1242 19.4795 31.124 19.4702C31.124 19.4539 31.1177 19.4382 31.1063 19.4264C31.095 19.4147 31.0795 19.4078 31.0632 19.4072C31.0539 19.4183 31.049 19.4324 31.0496 19.4468C31.0502 19.4612 31.0562 19.4749 31.0664 19.4851Z" fill="white"/>
<path d="M31.0482 19.5054C31.0359 19.4907 31.0285 19.4723 31.0274 19.4531C31.0262 19.4339 31.0313 19.4148 31.0418 19.3987C31.0211 19.402 31.0023 19.4129 30.9892 19.4293C30.976 19.4456 30.9695 19.4664 30.9708 19.4873C30.9722 19.5083 30.9813 19.528 30.9964 19.5426C31.0115 19.5572 31.0315 19.5656 31.0525 19.5662C31.0659 19.5659 31.0791 19.5625 31.0909 19.5562C31.1028 19.5499 31.113 19.5409 31.1208 19.5299C31.1076 19.5334 31.0937 19.533 31.0808 19.5286C31.0679 19.5242 31.0566 19.5162 31.0482 19.5054Z" fill="#C6C6C6"/>
<path d="M30.8636 19.2108C30.8636 19.2275 30.8586 19.2438 30.8494 19.2576C30.8401 19.2715 30.827 19.2823 30.8115 19.2887C30.7961 19.2951 30.7792 19.2967 30.7628 19.2935C30.7465 19.2902 30.7315 19.2822 30.7197 19.2704C30.7079 19.2586 30.6999 19.2436 30.6966 19.2272C30.6933 19.2109 30.695 19.1939 30.7014 19.1785C30.7078 19.1631 30.7186 19.1499 30.7324 19.1407C30.7463 19.1314 30.7626 19.1265 30.7793 19.1265C30.7904 19.1263 30.8014 19.1284 30.8117 19.1326C30.822 19.1368 30.8314 19.143 30.8392 19.1508C30.8471 19.1587 30.8533 19.1681 30.8575 19.1783C30.8617 19.1886 30.8637 19.1997 30.8636 19.2108Z" fill="#DADADA"/>
<path d="M30.7942 19.214C30.8007 19.2207 30.809 19.2254 30.8181 19.2275C30.8272 19.2296 30.8367 19.229 30.8455 19.2258C30.8497 19.2175 30.8519 19.2084 30.8519 19.1991C30.8516 19.1826 30.845 19.1669 30.8335 19.1552C30.822 19.1435 30.8064 19.1367 30.79 19.1361C30.781 19.1474 30.7765 19.1615 30.7773 19.1759C30.7781 19.1902 30.7841 19.2038 30.7942 19.214Z" fill="white"/>
<path d="M30.7761 19.2332C30.7635 19.2186 30.756 19.2003 30.7547 19.1811C30.7533 19.1618 30.7582 19.1427 30.7686 19.1265C30.7465 19.1279 30.7259 19.138 30.7113 19.1546C30.6967 19.1712 30.6893 19.193 30.6907 19.215C30.6921 19.2371 30.7022 19.2577 30.7188 19.2723C30.7355 19.2869 30.7572 19.2944 30.7793 19.2929C30.7927 19.2931 30.8059 19.29 30.8178 19.2838C30.8297 19.2777 30.8399 19.2687 30.8476 19.2577C30.8346 19.261 30.8209 19.2604 30.8082 19.2561C30.7955 19.2517 30.7843 19.2438 30.7761 19.2332Z" fill="#C6C6C6"/>
<path d="M30.7921 18.7551C30.7921 18.7774 30.7832 18.7989 30.7674 18.8147C30.7516 18.8305 30.7301 18.8394 30.7078 18.8394C30.6854 18.8394 30.664 18.8305 30.6482 18.8147C30.6324 18.7989 30.6235 18.7774 30.6235 18.7551C30.6235 18.7327 30.6324 18.7113 30.6482 18.6955C30.664 18.6797 30.6854 18.6708 30.7078 18.6708C30.7301 18.6708 30.7516 18.6797 30.7674 18.6955C30.7832 18.7113 30.7921 18.7327 30.7921 18.7551Z" fill="#DADADA"/>
<path d="M30.7217 18.7583C30.7284 18.765 30.7368 18.7697 30.7461 18.7718C30.7554 18.7738 30.765 18.7733 30.7739 18.7701C30.7774 18.7616 30.7793 18.7525 30.7793 18.7434C30.7793 18.727 30.773 18.7113 30.7616 18.6996C30.7503 18.6879 30.7348 18.681 30.7185 18.6804C30.7094 18.6915 30.7047 18.7056 30.7052 18.72C30.7058 18.7343 30.7117 18.748 30.7217 18.7583Z" fill="white"/>
<path d="M30.7046 18.7775C30.692 18.7629 30.6845 18.7446 30.6832 18.7254C30.6819 18.7062 30.6867 18.687 30.6971 18.6708C30.6751 18.6722 30.6544 18.6823 30.6398 18.6989C30.6252 18.7155 30.6178 18.7373 30.6192 18.7594C30.6206 18.7814 30.6308 18.802 30.6474 18.8167C30.664 18.8313 30.6857 18.8387 30.7078 18.8373C30.7212 18.8374 30.7344 18.8343 30.7463 18.8281C30.7582 18.822 30.7684 18.813 30.7761 18.802C30.7631 18.8053 30.7494 18.8047 30.7367 18.8004C30.724 18.796 30.7129 18.7881 30.7046 18.7775Z" fill="#C6C6C6"/>
<path d="M30.9127 18.3005C30.9127 18.3172 30.9077 18.3336 30.8984 18.3475C30.8891 18.3613 30.8759 18.3721 30.8604 18.3785C30.8449 18.3848 30.8279 18.3864 30.8115 18.3831C30.7952 18.3798 30.7801 18.3716 30.7684 18.3597C30.7566 18.3478 30.7487 18.3327 30.7456 18.3163C30.7424 18.2999 30.7443 18.2829 30.7508 18.2675C30.7574 18.2521 30.7683 18.239 30.7823 18.2299C30.7963 18.2207 30.8127 18.216 30.8295 18.2162C30.8516 18.2165 30.8728 18.2255 30.8884 18.2413C30.904 18.257 30.9127 18.2783 30.9127 18.3005Z" fill="#DADADA"/>
<path d="M30.8433 18.3036C30.8498 18.3103 30.8581 18.315 30.8672 18.3171C30.8763 18.3192 30.8858 18.3186 30.8946 18.3154C30.8989 18.3072 30.9011 18.298 30.901 18.2887C30.901 18.2723 30.8946 18.2566 30.8833 18.2449C30.8719 18.2331 30.8565 18.2263 30.8401 18.2257C30.831 18.2368 30.8263 18.2509 30.8269 18.2653C30.8275 18.2796 30.8333 18.2933 30.8433 18.3036Z" fill="white"/>
<path d="M30.8252 18.3229C30.8128 18.3082 30.8055 18.2898 30.8043 18.2706C30.8032 18.2514 30.8082 18.2323 30.8188 18.2162C30.798 18.2195 30.7793 18.2304 30.7661 18.2468C30.753 18.2632 30.7465 18.2839 30.7478 18.3048C30.7491 18.3258 30.7582 18.3455 30.7733 18.3601C30.7884 18.3747 30.8085 18.3831 30.8295 18.3837C30.8429 18.3834 30.856 18.38 30.8679 18.3737C30.8797 18.3674 30.89 18.3584 30.8978 18.3475C30.8846 18.3509 30.8707 18.3505 30.8578 18.3461C30.8449 18.3417 30.8335 18.3337 30.8252 18.3229Z" fill="#C6C6C6"/>
<path d="M31.1443 17.8928C31.1443 17.9095 31.1393 17.9258 31.1301 17.9396C31.1208 17.9535 31.1076 17.9643 31.0922 17.9707C31.0768 17.9771 31.0599 17.9787 31.0435 17.9755C31.0272 17.9722 31.0121 17.9642 31.0003 17.9524C30.9885 17.9406 30.9805 17.9256 30.9773 17.9092C30.974 17.8929 30.9757 17.8759 30.9821 17.8605C30.9884 17.8451 30.9993 17.8319 31.0131 17.8227C31.027 17.8134 31.0433 17.8085 31.06 17.8085C31.0823 17.8085 31.1038 17.8174 31.1196 17.8332C31.1354 17.849 31.1443 17.8704 31.1443 17.8928Z" fill="#DADADA"/>
<path d="M31.0738 17.896C31.0805 17.9028 31.089 17.9076 31.0982 17.9097C31.1075 17.9117 31.1172 17.9111 31.1261 17.9078C31.1296 17.8993 31.1314 17.8902 31.1315 17.8811C31.1315 17.8647 31.1251 17.849 31.1138 17.8373C31.1024 17.8255 31.087 17.8187 31.0706 17.8181C31.0615 17.8292 31.0568 17.8433 31.0574 17.8577C31.058 17.872 31.0639 17.8857 31.0738 17.896Z" fill="white"/>
<path d="M31.0557 17.9152C31.0433 17.9005 31.036 17.8821 31.0348 17.8629C31.0337 17.8437 31.0387 17.8246 31.0493 17.8085C31.0357 17.8104 31.0227 17.8156 31.0116 17.8238C31.0005 17.8319 30.9916 17.8427 30.9857 17.8551C30.9798 17.8675 30.977 17.8812 30.9777 17.8949C30.9784 17.9087 30.9824 17.922 30.9895 17.9338C30.9966 17.9456 31.0065 17.9555 31.0183 17.9625C31.0302 17.9695 31.0436 17.9735 31.0573 17.9741C31.071 17.9747 31.0847 17.9718 31.0971 17.9658C31.1095 17.9598 31.1202 17.9509 31.1283 17.9397C31.1151 17.9431 31.1012 17.9425 31.0883 17.9382C31.0755 17.9338 31.0641 17.9259 31.0557 17.9152Z" fill="#C6C6C6"/>
<path d="M31.7664 18.6558C31.6491 18.9514 31.4079 19.1318 31.2264 19.0603C31.045 18.9888 30.9938 18.6899 31.1112 18.3954C31.2286 18.1008 31.4708 17.9194 31.6512 17.9909C31.8315 18.0624 31.886 18.3602 31.7664 18.6558Z" fill="#EDEDED"/>
<path d="M37.7001 16.3902C37.1665 17.7253 36.0289 18.5246 35.1527 18.1757C34.2765 17.8267 33.9969 16.4628 34.5273 15.1288C35.0577 13.7948 36.1986 12.9944 37.0747 13.3434C37.9509 13.6923 38.2305 15.0562 37.7001 16.3902Z" fill="#3F3E3F"/>
<path d="M36.9435 16.15C36.666 16.848 36.0694 17.2663 35.6116 17.0838C35.1538 16.9013 35.0076 16.1884 35.284 15.4905C35.5604 14.7925 36.158 14.3752 36.6158 14.5577C37.0737 14.7402 37.2199 15.4531 36.9435 16.15Z" fill="#181817"/>
<path d="M36.889 15.9985C36.6436 16.6153 36.1175 16.9846 35.7151 16.8234C35.3128 16.6623 35.1815 16.0316 35.4259 15.4147C35.6703 14.7979 36.1986 14.4286 36.5998 14.5898C37.0011 14.7509 37.1388 15.3816 36.889 15.9985Z" fill="#DADADA"/>
<path d="M36.889 15.9985C36.6436 16.6153 36.1175 16.9846 35.7151 16.8234C35.3128 16.6623 35.1815 16.0316 35.4259 15.4147C35.6703 14.7979 36.1986 14.4286 36.5998 14.5898C37.0011 14.7509 37.1388 15.3816 36.889 15.9985Z" fill="#DADADA"/>
<path d="M36.6297 15.8651C36.4664 16.277 36.1281 16.5299 35.8752 16.4296C35.6223 16.3293 35.555 15.9131 35.7151 15.5012C35.8752 15.0892 36.2167 14.8352 36.4696 14.9366C36.7226 15.038 36.7941 15.4521 36.6297 15.8651Z" fill="#878787"/>
<path d="M36.2487 14.7723C36.2487 14.789 36.2438 14.8053 36.2345 14.8191C36.2253 14.833 36.2121 14.8438 36.1967 14.8502C36.1813 14.8566 36.1643 14.8582 36.148 14.855C36.1316 14.8517 36.1166 14.8437 36.1048 14.8319C36.093 14.8201 36.085 14.8051 36.0817 14.7887C36.0785 14.7724 36.0801 14.7554 36.0865 14.74C36.0929 14.7246 36.1037 14.7115 36.1176 14.7022C36.1314 14.6929 36.1477 14.688 36.1644 14.688C36.1755 14.688 36.1865 14.6902 36.1967 14.6944C36.2069 14.6986 36.2162 14.7049 36.224 14.7127C36.2319 14.7205 36.2381 14.7298 36.2423 14.74C36.2465 14.7503 36.2487 14.7612 36.2487 14.7723Z" fill="#DADADA"/>
<path d="M36.1751 14.7755C36.1816 14.7823 36.1899 14.787 36.199 14.789C36.2081 14.7911 36.2176 14.7905 36.2263 14.7873C36.2307 14.7791 36.2329 14.7699 36.2327 14.7606C36.2325 14.7442 36.2259 14.7285 36.2144 14.7167C36.2028 14.705 36.1873 14.6982 36.1708 14.6976C36.1616 14.7088 36.157 14.723 36.1578 14.7374C36.1586 14.7518 36.1647 14.7655 36.1751 14.7755Z" fill="white"/>
<path d="M36.1569 14.7947C36.1444 14.7801 36.1369 14.7618 36.1355 14.7426C36.1342 14.7234 36.1391 14.7042 36.1495 14.688C36.1287 14.6913 36.1099 14.7022 36.0968 14.7186C36.0837 14.735 36.0771 14.7557 36.0785 14.7766C36.0798 14.7976 36.0889 14.8173 36.104 14.8319C36.1191 14.8465 36.1392 14.8549 36.1601 14.8555C36.1737 14.8557 36.187 14.8524 36.1989 14.8461C36.2108 14.8397 36.221 14.8305 36.2284 14.8193C36.2154 14.8227 36.2017 14.8221 36.189 14.8178C36.1763 14.8134 36.1651 14.8054 36.1569 14.7947Z" fill="#C6C6C6"/>
<path d="M36.6415 14.7446C36.6415 14.7613 36.6365 14.7776 36.6273 14.7914C36.618 14.8053 36.6048 14.8161 36.5894 14.8225C36.574 14.8289 36.5571 14.8305 36.5407 14.8273C36.5243 14.824 36.5093 14.816 36.4975 14.8042C36.4857 14.7924 36.4777 14.7774 36.4745 14.761C36.4712 14.7447 36.4729 14.7277 36.4793 14.7123C36.4856 14.6969 36.4964 14.6838 36.5103 14.6745C36.5242 14.6652 36.5405 14.6603 36.5572 14.6603C36.5795 14.6603 36.601 14.6692 36.6168 14.685C36.6326 14.7008 36.6415 14.7222 36.6415 14.7446Z" fill="#DADADA"/>
<path d="M36.5689 14.7477C36.5756 14.7544 36.5841 14.7591 36.5933 14.7611C36.6026 14.7632 36.6122 14.7626 36.6212 14.7594C36.6246 14.751 36.6264 14.7419 36.6265 14.7328C36.6265 14.7164 36.6202 14.7007 36.6088 14.689C36.5975 14.6772 36.582 14.6704 36.5657 14.6698C36.5566 14.6809 36.5519 14.695 36.5525 14.7094C36.5531 14.7237 36.5589 14.7374 36.5689 14.7477Z" fill="white"/>
<path d="M36.5539 14.767C36.5414 14.7524 36.5339 14.7341 36.5325 14.7149C36.5312 14.6957 36.5361 14.6765 36.5465 14.6603C36.5244 14.6617 36.5038 14.6718 36.4892 14.6884C36.4746 14.705 36.4671 14.7268 36.4686 14.7489C36.47 14.7709 36.4801 14.7915 36.4967 14.8062C36.5133 14.8208 36.5351 14.8282 36.5571 14.8268C36.5705 14.8269 36.5837 14.8238 36.5957 14.8176C36.6076 14.8115 36.6178 14.8025 36.6254 14.7915C36.6124 14.7948 36.5987 14.7942 36.586 14.7899C36.5734 14.7855 36.5622 14.7776 36.5539 14.767Z" fill="#C6C6C6"/>
<path d="M36.9082 15.0689C36.9082 15.0857 36.9033 15.102 36.894 15.1159C36.8846 15.1298 36.8714 15.1406 36.8559 15.1469C36.8405 15.1533 36.8235 15.1549 36.8071 15.1515C36.7907 15.1482 36.7757 15.1401 36.7639 15.1282C36.7522 15.1163 36.7442 15.1011 36.7411 15.0847C36.738 15.0683 36.7398 15.0513 36.7464 15.0359C36.7529 15.0205 36.7639 15.0074 36.7779 14.9983C36.7919 14.9892 36.8083 14.9844 36.825 14.9846C36.836 14.9846 36.8469 14.9868 36.8571 14.9911C36.8673 14.9953 36.8765 15.0015 36.8842 15.0094C36.892 15.0172 36.8981 15.0265 36.9022 15.0368C36.9063 15.047 36.9084 15.0579 36.9082 15.0689Z" fill="#DADADA"/>
<path d="M36.8389 15.0722C36.8455 15.079 36.854 15.0837 36.8633 15.0858C36.8726 15.0879 36.8822 15.0872 36.8912 15.0839C36.8946 15.0754 36.8964 15.0664 36.8965 15.0572C36.8965 15.0409 36.8902 15.0252 36.8788 15.0134C36.8675 15.0017 36.852 14.9948 36.8357 14.9943C36.8266 15.0054 36.8219 15.0195 36.8225 15.0338C36.8231 15.0482 36.8289 15.0618 36.8389 15.0722Z" fill="white"/>
<path d="M36.8207 15.0913C36.8087 15.0764 36.8016 15.0581 36.8004 15.039C36.7993 15.0199 36.8041 15.0008 36.8143 14.9846C36.8004 14.9863 36.7871 14.9914 36.7756 14.9996C36.7642 15.0077 36.755 15.0186 36.7488 15.0312C36.7426 15.0438 36.7396 15.0577 36.7402 15.0718C36.7408 15.0858 36.7449 15.0995 36.7521 15.1115C36.7592 15.1236 36.7693 15.1337 36.7814 15.1408C36.7935 15.148 36.8072 15.152 36.8212 15.1526C36.8352 15.1531 36.8492 15.1501 36.8618 15.1439C36.8744 15.1377 36.8852 15.1284 36.8933 15.117C36.88 15.1198 36.8662 15.1189 36.8534 15.1144C36.8406 15.1099 36.8293 15.1019 36.8207 15.0913Z" fill="#C6C6C6"/>
<path d="M36.952 15.5599C36.9522 15.5767 36.9474 15.5931 36.9382 15.6072C36.9291 15.6212 36.9159 15.6322 36.9004 15.6387C36.885 15.6452 36.868 15.647 36.8515 15.6437C36.8351 15.6405 36.8199 15.6325 36.8081 15.6206C36.7962 15.6088 36.7882 15.5936 36.785 15.5772C36.7817 15.5607 36.7835 15.5437 36.79 15.5282C36.7965 15.5128 36.8075 15.4996 36.8215 15.4905C36.8355 15.4813 36.852 15.4765 36.8688 15.4767C36.8908 15.4767 36.912 15.4855 36.9276 15.5011C36.9432 15.5167 36.952 15.5379 36.952 15.5599Z" fill="#DADADA"/>
<path d="M36.8826 15.5631C36.8891 15.5699 36.8973 15.5747 36.9064 15.577C36.9155 15.5793 36.925 15.5789 36.9339 15.5759C36.9381 15.5677 36.9403 15.5585 36.9403 15.5493C36.9403 15.5328 36.934 15.517 36.9227 15.5051C36.9113 15.4932 36.8959 15.4861 36.8794 15.4852C36.8701 15.4963 36.8653 15.5104 36.8659 15.5248C36.8665 15.5392 36.8724 15.5529 36.8826 15.5631Z" fill="white"/>
<path d="M36.8645 15.5834C36.8524 15.5685 36.8453 15.5502 36.8441 15.5311C36.843 15.5119 36.8479 15.4929 36.8581 15.4767C36.8373 15.48 36.8186 15.4909 36.8054 15.5073C36.7923 15.5237 36.7858 15.5444 36.7871 15.5653C36.7884 15.5863 36.7975 15.606 36.8127 15.6206C36.8278 15.6352 36.8478 15.6436 36.8688 15.6442C36.8821 15.6441 36.8952 15.6409 36.9071 15.6347C36.919 15.6286 36.9292 15.6198 36.9371 15.609C36.9238 15.6119 36.91 15.611 36.8972 15.6064C36.8844 15.6019 36.8731 15.594 36.8645 15.5834Z" fill="#C6C6C6"/>
<path d="M36.825 15.9634C36.8252 15.9801 36.8205 15.9965 36.8113 16.0105C36.8022 16.0245 36.7891 16.0355 36.7737 16.042C36.7583 16.0486 36.7413 16.0504 36.7249 16.0473C36.7085 16.0441 36.6934 16.0362 36.6815 16.0244C36.6696 16.0127 36.6614 15.9977 36.6581 15.9813C36.6548 15.9649 36.6564 15.9479 36.6627 15.9324C36.6691 15.917 36.6799 15.9037 36.6938 15.8944C36.7076 15.8851 36.724 15.8801 36.7407 15.8801C36.7629 15.8801 36.7842 15.8889 36.7999 15.9044C36.8157 15.92 36.8247 15.9412 36.825 15.9634Z" fill="#DADADA"/>
<path d="M36.7556 15.9633C36.7623 15.9698 36.7705 15.9743 36.7796 15.9764C36.7886 15.9784 36.7981 15.978 36.8069 15.975C36.8085 15.9662 36.8085 15.9571 36.8069 15.9483C36.8069 15.9319 36.8006 15.916 36.7893 15.9041C36.7779 15.8922 36.7625 15.8851 36.746 15.8843C36.7374 15.8962 36.7336 15.911 36.7354 15.9256C36.7372 15.9403 36.7444 15.9537 36.7556 15.9633Z" fill="white"/>
<path d="M36.7375 15.9815C36.7253 15.9667 36.718 15.9485 36.7166 15.9293C36.7153 15.9102 36.72 15.8911 36.73 15.8748C36.7093 15.878 36.6905 15.8889 36.6774 15.9053C36.6642 15.9217 36.6577 15.9424 36.659 15.9634C36.6604 15.9844 36.6695 16.0041 36.6846 16.0187C36.6997 16.0333 36.7197 16.0417 36.7407 16.0423C36.7541 16.0424 36.7673 16.0393 36.7792 16.0332C36.7911 16.027 36.8014 16.0181 36.809 16.0071C36.7959 16.01 36.7822 16.0091 36.7696 16.0046C36.7569 16 36.7458 15.992 36.7375 15.9815Z" fill="#C6C6C6"/>
<path d="M36.6137 16.3401C36.6137 16.3568 36.6087 16.3731 36.5994 16.387C36.5901 16.4009 36.5769 16.4117 36.5614 16.418C36.546 16.4244 36.5289 16.426 36.5126 16.4227C36.4962 16.4193 36.4812 16.4112 36.4694 16.3993C36.4577 16.3874 36.4497 16.3723 36.4466 16.3558C36.4435 16.3394 36.4453 16.3224 36.4518 16.307C36.4584 16.2917 36.4693 16.2786 36.4833 16.2694C36.4974 16.2603 36.5138 16.2555 36.5305 16.2557C36.5415 16.2557 36.5524 16.2579 36.5626 16.2622C36.5727 16.2664 36.582 16.2727 36.5897 16.2805C36.5975 16.2883 36.6036 16.2976 36.6077 16.3079C36.6118 16.3181 36.6139 16.329 36.6137 16.3401Z" fill="#DADADA"/>
<path d="M36.5443 16.3433C36.551 16.3501 36.5595 16.3548 36.5688 16.3569C36.578 16.359 36.5877 16.3583 36.5966 16.355C36.6001 16.3466 36.6019 16.3375 36.602 16.3283C36.602 16.312 36.5956 16.2963 36.5843 16.2846C36.5729 16.2728 36.5575 16.2659 36.5411 16.2654C36.532 16.2765 36.5274 16.2906 36.5279 16.3049C36.5285 16.3193 36.5344 16.3329 36.5443 16.3433Z" fill="white"/>
<path d="M36.5262 16.3625C36.5138 16.3477 36.5065 16.3294 36.5054 16.3102C36.5042 16.2909 36.5093 16.2719 36.5198 16.2557C36.5062 16.2576 36.4932 16.2629 36.4821 16.271C36.4711 16.2792 36.4621 16.2899 36.4562 16.3023C36.4503 16.3148 36.4476 16.3285 36.4482 16.3422C36.4489 16.3559 36.4529 16.3693 36.46 16.3811C36.4671 16.3929 36.477 16.4027 36.4889 16.4097C36.5007 16.4168 36.5141 16.4208 36.5278 16.4213C36.5416 16.4219 36.5552 16.4191 36.5676 16.4131C36.58 16.4071 36.5907 16.3981 36.5988 16.387C36.5856 16.3901 36.5718 16.3894 36.559 16.3851C36.5462 16.3807 36.5348 16.3729 36.5262 16.3625Z" fill="#C6C6C6"/>
<path d="M36.2487 16.6121C36.2487 16.6288 36.2438 16.6451 36.2345 16.659C36.2253 16.6728 36.2121 16.6837 36.1967 16.69C36.1813 16.6964 36.1643 16.6981 36.148 16.6948C36.1316 16.6916 36.1166 16.6835 36.1048 16.6718C36.093 16.66 36.085 16.6449 36.0817 16.6286C36.0785 16.6122 36.0801 16.5953 36.0865 16.5799C36.0929 16.5645 36.1037 16.5513 36.1176 16.542C36.1314 16.5328 36.1477 16.5278 36.1644 16.5278C36.1755 16.5278 36.1865 16.53 36.1967 16.5342C36.2069 16.5385 36.2162 16.5447 36.224 16.5525C36.2319 16.5604 36.2381 16.5696 36.2423 16.5799C36.2465 16.5901 36.2487 16.6011 36.2487 16.6121Z" fill="#DADADA"/>
<path d="M36.1751 16.6154C36.1814 16.6223 36.1897 16.6272 36.1989 16.6293C36.208 16.6314 36.2176 16.6306 36.2263 16.6271C36.2307 16.6189 36.2329 16.6097 36.2327 16.6004C36.2325 16.584 36.2259 16.5683 36.2144 16.5566C36.2028 16.5449 36.1873 16.538 36.1708 16.5375C36.1616 16.5486 36.157 16.5628 36.1578 16.5773C36.1586 16.5917 36.1647 16.6053 36.1751 16.6154Z" fill="white"/>
<path d="M36.1569 16.6346C36.1444 16.6199 36.1369 16.6017 36.1355 16.5824C36.1342 16.5632 36.1391 16.5441 36.1495 16.5278C36.1287 16.5311 36.1099 16.542 36.0968 16.5584C36.0837 16.5748 36.0771 16.5955 36.0785 16.6165C36.0798 16.6374 36.0889 16.6571 36.104 16.6717C36.1191 16.6863 36.1392 16.6948 36.1601 16.6954C36.1735 16.6953 36.1866 16.692 36.1985 16.6859C36.2103 16.6798 36.2206 16.671 36.2284 16.6602C36.2153 16.6632 36.2016 16.6624 36.1889 16.6578C36.1763 16.6533 36.1652 16.6452 36.1569 16.6346Z" fill="#C6C6C6"/>
<path d="M35.8677 16.64C35.8677 16.6623 35.8588 16.6838 35.843 16.6996C35.8272 16.7154 35.8058 16.7243 35.7834 16.7243C35.761 16.7243 35.7396 16.7154 35.7238 16.6996C35.708 16.6838 35.6991 16.6623 35.6991 16.64C35.6991 16.6176 35.708 16.5962 35.7238 16.5804C35.7396 16.5645 35.761 16.5557 35.7834 16.5557C35.8058 16.5557 35.8272 16.5645 35.843 16.5804C35.8588 16.5962 35.8677 16.6176 35.8677 16.64Z" fill="#DADADA"/>
<path d="M35.7973 16.6431C35.8039 16.65 35.8123 16.6548 35.8216 16.6571C35.8309 16.6594 35.8406 16.659 35.8496 16.6559C35.853 16.6474 35.8548 16.6384 35.8549 16.6292C35.855 16.6128 35.8487 16.597 35.8373 16.585C35.826 16.5731 35.8105 16.566 35.7941 16.5652C35.785 16.5763 35.7803 16.5904 35.7809 16.6047C35.7815 16.6191 35.7873 16.6327 35.7973 16.6431Z" fill="white"/>
<path d="M35.7792 16.6634C35.7671 16.6485 35.76 16.6302 35.7588 16.611C35.7577 16.5919 35.7625 16.5729 35.7728 16.5566C35.7588 16.5583 35.7455 16.5635 35.7341 16.5716C35.7226 16.5797 35.7134 16.5906 35.7072 16.6032C35.701 16.6158 35.698 16.6298 35.6986 16.6438C35.6992 16.6578 35.7033 16.6715 35.7105 16.6835C35.7177 16.6956 35.7278 16.7057 35.7398 16.7128C35.7519 16.72 35.7656 16.7241 35.7796 16.7246C35.7937 16.7251 35.8076 16.7222 35.8202 16.7159C35.8328 16.7097 35.8436 16.7004 35.8517 16.689C35.8384 16.6917 35.8247 16.6907 35.8119 16.6862C35.7991 16.6817 35.7878 16.6738 35.7792 16.6634Z" fill="#C6C6C6"/>
<path d="M35.5945 16.3678C35.5945 16.3845 35.5895 16.4008 35.5802 16.4147C35.5709 16.4286 35.5577 16.4394 35.5422 16.4458C35.5268 16.4521 35.5097 16.4537 35.4934 16.4504C35.477 16.447 35.462 16.4389 35.4502 16.427C35.4385 16.4151 35.4305 16.4 35.4274 16.3835C35.4243 16.3671 35.4261 16.3501 35.4326 16.3348C35.4392 16.3194 35.4501 16.3063 35.4642 16.2971C35.4782 16.288 35.4946 16.2832 35.5113 16.2835C35.5335 16.2837 35.5546 16.2927 35.5702 16.3085C35.5858 16.3243 35.5945 16.3456 35.5945 16.3678Z" fill="#DADADA"/>
<path d="M35.5252 16.371C35.5316 16.3777 35.5399 16.3824 35.549 16.3845C35.5581 16.3866 35.5676 16.386 35.5764 16.3827C35.5808 16.3745 35.583 16.3653 35.5828 16.3561C35.5828 16.3397 35.5765 16.324 35.5651 16.3123C35.5537 16.3005 35.5383 16.2936 35.522 16.2931C35.5129 16.3042 35.5082 16.3183 35.5087 16.3327C35.5093 16.347 35.5152 16.3607 35.5252 16.371Z" fill="white"/>
<path d="M35.507 16.3902C35.4946 16.3754 35.4873 16.3571 35.4862 16.3379C35.485 16.3186 35.4901 16.2996 35.5006 16.2834C35.4799 16.2867 35.4611 16.2976 35.4479 16.314C35.4348 16.3304 35.4283 16.3511 35.4296 16.3721C35.4309 16.393 35.4401 16.4128 35.4552 16.4274C35.4703 16.442 35.4903 16.4504 35.5113 16.451C35.5246 16.4509 35.5378 16.4476 35.5496 16.4415C35.5615 16.4354 35.5717 16.4266 35.5796 16.4158C35.5663 16.4187 35.5525 16.4179 35.5396 16.4134C35.5268 16.4089 35.5155 16.4008 35.507 16.3902Z" fill="#C6C6C6"/>
<path d="M35.4398 15.9964C35.4863 15.9964 35.5241 15.9586 35.5241 15.9121C35.5241 15.8655 35.4863 15.8278 35.4398 15.8278C35.3932 15.8278 35.3555 15.8655 35.3555 15.9121C35.3555 15.9586 35.3932 15.9964 35.4398 15.9964Z" fill="#DADADA"/>
<path d="M35.4536 15.9153C35.4601 15.9221 35.4683 15.9269 35.4774 15.9292C35.4865 15.9315 35.496 15.9311 35.5049 15.9281C35.5091 15.9195 35.5113 15.91 35.5113 15.9004C35.5113 15.884 35.5049 15.8683 35.4936 15.8566C35.4822 15.8448 35.4668 15.838 35.4504 15.8374C35.4409 15.8483 35.4359 15.8625 35.4365 15.877C35.4371 15.8915 35.4432 15.9052 35.4536 15.9153Z" fill="white"/>
<path d="M35.4355 15.9356C35.4233 15.9208 35.416 15.9026 35.4146 15.8834C35.4133 15.8643 35.418 15.8452 35.428 15.8289C35.4073 15.8321 35.3885 15.843 35.3754 15.8594C35.3622 15.8758 35.3557 15.8965 35.357 15.9175C35.3584 15.9385 35.3675 15.9582 35.3826 15.9728C35.3977 15.9874 35.4177 15.9958 35.4387 15.9964C35.4521 15.9965 35.4653 15.9934 35.4772 15.9873C35.4891 15.9811 35.4994 15.9722 35.507 15.9612C35.4939 15.9641 35.4802 15.9632 35.4676 15.9587C35.4549 15.9541 35.4438 15.9461 35.4355 15.9356Z" fill="#C6C6C6"/>
<path d="M35.6447 15.4575C35.6447 15.4742 35.6397 15.4905 35.6305 15.5043C35.6212 15.5182 35.6081 15.529 35.5926 15.5354C35.5772 15.5418 35.5603 15.5434 35.5439 15.5402C35.5276 15.5369 35.5126 15.5289 35.5008 15.5171C35.489 15.5053 35.4809 15.4903 35.4777 15.4739C35.4744 15.4576 35.4761 15.4406 35.4825 15.4252C35.4889 15.4098 35.4997 15.3966 35.5135 15.3874C35.5274 15.3781 35.5437 15.3732 35.5604 15.3732C35.5827 15.3732 35.6042 15.3821 35.62 15.3979C35.6358 15.4137 35.6447 15.4351 35.6447 15.4575Z" fill="#DADADA"/>
<path d="M35.5743 15.4606C35.5809 15.4675 35.5893 15.4723 35.5985 15.4746C35.6078 15.4769 35.6175 15.4765 35.6265 15.4734C35.6299 15.4649 35.6317 15.4559 35.6319 15.4467C35.6322 15.4302 35.626 15.4142 35.6146 15.4023C35.6032 15.3903 35.5876 15.3832 35.5711 15.3827C35.562 15.3938 35.5573 15.4079 35.5578 15.4223C35.5584 15.4366 35.5643 15.4503 35.5743 15.4606Z" fill="white"/>
<path d="M35.5561 15.4809C35.544 15.466 35.5369 15.4477 35.5358 15.4285C35.5346 15.4094 35.5395 15.3904 35.5497 15.3741C35.5358 15.3758 35.5225 15.381 35.511 15.3891C35.4996 15.3972 35.4903 15.4081 35.4841 15.4207C35.4779 15.4333 35.475 15.4473 35.4756 15.4613C35.4761 15.4753 35.4802 15.489 35.4874 15.5011C35.4946 15.5131 35.5047 15.5232 35.5168 15.5304C35.5289 15.5375 35.5425 15.5416 35.5566 15.5421C35.5706 15.5426 35.5845 15.5397 35.5971 15.5334C35.6097 15.5272 35.6206 15.518 35.6287 15.5065C35.6154 15.5092 35.6016 15.5082 35.5888 15.5037C35.5761 15.4992 35.5647 15.4913 35.5561 15.4809Z" fill="#C6C6C6"/>
<path d="M35.8752 15.0498C35.8754 15.0665 35.8707 15.0829 35.8615 15.0969C35.8524 15.1109 35.8393 15.1219 35.8239 15.1284C35.8085 15.135 35.7915 15.1368 35.7751 15.1337C35.7587 15.1305 35.7436 15.1226 35.7317 15.1109C35.7198 15.0991 35.7116 15.0841 35.7083 15.0677C35.705 15.0513 35.7066 15.0343 35.7129 15.0188C35.7193 15.0034 35.7301 14.9902 35.744 14.9808C35.7578 14.9715 35.7742 14.9666 35.7909 14.9666C35.8131 14.9666 35.8344 14.9753 35.8501 14.9909C35.8659 15.0064 35.8749 15.0276 35.8752 15.0498Z" fill="#DADADA"/>
<path d="M35.8058 15.053C35.8123 15.0598 35.8205 15.0646 35.8296 15.0669C35.8386 15.0691 35.8482 15.0688 35.8571 15.0658C35.8609 15.0574 35.8627 15.0483 35.8624 15.0391C35.8627 15.0226 35.8565 15.0066 35.8451 14.9947C35.8337 14.9827 35.8181 14.9757 35.8016 14.9751C35.7924 14.9863 35.7877 15.0005 35.7885 15.0149C35.7893 15.0293 35.7955 15.0429 35.8058 15.053Z" fill="white"/>
<path d="M35.7877 15.0733C35.7754 15.0585 35.7681 15.0403 35.7668 15.0211C35.7654 15.002 35.7701 14.9829 35.7802 14.9666C35.7595 14.9698 35.7407 14.9807 35.7276 14.9971C35.7144 15.0135 35.7079 15.0342 35.7092 15.0552C35.7106 15.0762 35.7197 15.0959 35.7348 15.1105C35.7499 15.1251 35.7699 15.1335 35.7909 15.1341C35.8043 15.1342 35.8175 15.1311 35.8294 15.125C35.8413 15.1188 35.8515 15.1099 35.8592 15.0989C35.8461 15.1018 35.8324 15.1009 35.8198 15.0964C35.8071 15.0918 35.796 15.0838 35.7877 15.0733Z" fill="#C6C6C6"/>
<path d="M36.4995 15.8128C36.3821 16.1084 36.1409 16.2888 35.9595 16.2173C35.7781 16.1458 35.7279 15.848 35.8453 15.5524C35.9627 15.2568 36.2039 15.0764 36.3853 15.149C36.5668 15.2216 36.6169 15.5182 36.4995 15.8128Z" fill="#EDEDED"/>
<path d="M14.0797 17.1265L38.4632 3.97747C38.4632 3.97747 39.4322 3.67759 39.398 5.0276V8.59954L12.4682 24.074L12.8588 19.5437C12.8588 19.5437 12.8182 17.5865 14.0797 17.1265Z" fill="#2D2D2D"/>
<path d="M14.3529 17.4404L38.063 4.74063C38.063 4.74063 38.8495 4.4973 38.8207 5.59439V8.49292L13.0455 23.072L13.3657 19.3966C13.3657 19.3966 13.3294 17.8139 14.3529 17.4404Z" fill="#8CD0E5"/>
<path d="M18.3762 20.357L17.9707 20.548V15.3827L18.3762 15.1063V20.357Z" fill="#2D2D2D"/>
<path d="M31.0173 13.1726L30.6117 13.4212V8.38297L31.0173 8.23889V13.1726Z" fill="#2D2D2D"/>
<path d="M35.2338 10.8065L34.8272 11.0552V6.01581L35.2338 5.8728V10.8065Z" fill="#2D2D2D"/>
<g style="mix-blend-mode:multiply">
<path d="M38.063 4.74057L38.0149 4.76618C38.2551 7.97847 36.2445 8.68709 36.2445 8.68709L16.5673 20.0731C14.4084 20.7081 14.006 19.0763 14.053 17.6036C13.3369 18.1425 13.3625 19.3965 13.3625 19.3965L13.0423 23.072L38.8207 8.49286V5.5922C38.8495 4.49724 38.063 4.74057 38.063 4.74057Z" fill="#8CD0E5"/>
</g>
<path d="M22.6621 12.5921L27.1753 10.0638V21.0998L22.6621 23.755V12.5921Z" fill="#2D2D2D"/>
<path d="M22.8937 12.8289L26.9438 10.576V20.9354L22.8937 23.2438V12.8289Z" fill="#D08000"/>
<path d="M24.7827 12.2505L23.3014 13.1011V22.5757L24.7827 21.7251V12.2505Z" fill="#8CD0E5"/>
<path d="M25.1487 12.0403V21.515L26.6161 20.6729V11.1993L25.1487 12.0403Z" fill="#8CD0E5"/>
<g style="mix-blend-mode:multiply">
<path d="M23.6557 12.9004L23.3056 13.101V22.5799L24.788 21.7262V21.1168C23.3942 21.4786 23.5607 15.0028 23.6557 12.9004Z" fill="#8CD0E5"/>
</g>
<g style="mix-blend-mode:multiply">
<path d="M25.6119 11.7756L25.1498 12.0414V21.5128L26.6161 20.6708V20.3944C25.249 20.3944 25.5393 13.2345 25.6119 11.7756Z" fill="#8CD0E5"/>
</g>
</g>
<defs>
<clipPath id="clip0_261_2106">
<rect width="40.62" height="31.5135" fill="white"/>
</clipPath>
</defs>
</svg>
