<svg width="28" height="28" viewBox="0 0 28 28" fill="none" xmlns="http://www.w3.org/2000/svg">
<path d="M14 28C11.2311 28 8.5243 27.1789 6.22202 25.6406C3.91973 24.1022 2.12531 21.9157 1.06569 19.3576C0.00606024 16.7994 -0.271186 13.9845 0.269007 11.2687C0.8092 8.553 2.14257 6.05844 4.10051 4.1005C6.05844 2.14257 8.553 0.809198 11.2687 0.269005C13.9845 -0.271188 16.7994 0.00605834 19.3576 1.06569C21.9157 2.12531 24.1022 3.91973 25.6406 6.22201C27.1789 8.5243 28 11.2311 28 14C27.9958 17.7117 26.5194 21.2702 23.8948 23.8948C21.2702 26.5194 17.7117 27.9958 14 28ZM14 2C11.6266 2 9.30655 2.70379 7.33316 4.02236C5.35977 5.34094 3.8217 7.21508 2.91345 9.4078C2.00519 11.6005 1.76755 14.0133 2.23058 16.3411C2.6936 18.6689 3.83649 20.807 5.51472 22.4853C7.19295 24.1635 9.33115 25.3064 11.6589 25.7694C13.9867 26.2324 16.3995 25.9948 18.5922 25.0866C20.7849 24.1783 22.6591 22.6402 23.9776 20.6668C25.2962 18.6935 26 16.3734 26 14C25.9963 10.8185 24.7308 7.76844 22.4812 5.51881C20.2316 3.26918 17.1815 2.0037 14 2Z" fill="white"/>
</svg>
